/* XPM */ 
static char * searchresults_xpm[] = {
"16 16 118 2",
"  	c None",
"! 	c #89AA21",
"# 	c #79971D",
"$ 	c #6B851A",
"% 	c #5B7116",
"& 	c #4B5D16",
"' 	c black",
"( 	c #D2E98A",
") 	c #D0E885",
"* 	c #CFE783",
"+ 	c #CCE67B",
", 	c #A4B770",
"- 	c #424D5B",
". 	c #78896A",
"0 	c #A4B975",
"1 	c #CAE576",
"2 	c #45515F",
"3 	c #58768A",
"4 	c #6493AA",
"5 	c #628AA2",
"6 	c #50687B",
"7 	c #434752",
"8 	c #88985C",
"9 	c #C5E275",
": 	c #C8E46F",
"; 	c #4B5D6D",
"< 	c #6C7B8A",
"= 	c #8FD3EC",
"> 	c #8BCAE7",
"? 	c #6FA5C1",
"@ 	c #7696AE",
"A 	c #536270",
"B 	c #BFDC66",
"C 	c #B1BDCC",
"D 	c #548EA8",
"E 	c #D5FFFF",
"F 	c #E4F8FF",
"G 	c #8BE1FF",
"H 	c #75BEDE",
"I 	c #729BB5",
"J 	c #A9C65D",
"K 	c #D9E3F1",
"L 	c #778D9D",
"M 	c #79C0DE",
"N 	c #C1EEFF",
"O 	c #82DCFF",
"P 	c #7AC2E2",
"Q 	c #5B7F95",
"R 	c #7F965B",
"S 	c #C8CFDE",
"T 	c #B9C2D1",
"U 	c #5687A1",
"V 	c #7FC8E0",
"W 	c #B0EEFF",
"X 	c #99E6FF",
"Y 	c #86D4F4",
"Z 	c #79B3D0",
"[ 	c #4B5C1D",
"] 	c #C6E36C",
"^ 	c #9BB664",
"_ 	c #808C9A",
"` 	c #E1EAF9",
"a 	c #679DB6",
"b 	c #82C1DC",
"c 	c #7EC7E8",
"d 	c #6FA3BF",
"e 	c #C0E05E",
"f 	c #BEDF59",
"g 	c #8CA660",
"h 	c #8795A4",
"i 	c #D2DAEB",
"j 	c #C1C9DA",
"k 	c #93A3B4",
"l 	c #7893A7",
"m 	c #6D8CA1",
"n 	c #5F798B",
"o 	c #505E18",
"p 	c #BCDE54",
"q 	c #BADD4C",
"r 	c #8EAA56",
"s 	c #6A7482",
"t 	c #8996A6",
"u 	c #ADB7C7",
"v 	c #8F98A9",
"w 	c #DEF5F9",
"x 	c #8B6055",
"y 	c #B6DB43",
"z 	c #B4DA3C",
"{ 	c #A1C43F",
"| 	c #819D50",
"} 	c #5C6A78",
"~ 	c #596775",
" !	c #98AF70",
"!!	c #656B53",
"#!	c #A1839C",
"$!	c #F3B2B8",
"%!	c #BD365F",
"&!	c #B2D937",
"'!	c #AAD429",
"(!	c #A4CC2A",
")!	c #647C22",
"*!	c #B8D468",
"+!	c #B2D73D",
",!	c #96B929",
"-!	c #4F363E",
".!	c #C23F63",
"0!	c #FCABB4",
"1!	c #A5CD27",
"2!	c #95B924",
"3!	c #9BC125",
"4!	c #661838",
"5!	c #B92A53",
"6!	c #D97E8F",
"7!	c #8FB222",
"8!	c #738F1C",
"9!	c #75911C",
":!	c #6E1A3A",
";!	c #7F072E",
"! ! ! ! ! # # # # $ $ $ % &     ",
"! ( ( ( ( ( ( ( ( ) ) * + &     ",
"! ) ) ) , - - - . 0 + + 1 &     ",
"! * * 0 2 3 4 5 6 7 8 9 : &     ",
"! * + ; < 4 = > ? @ A 8 B &     ",
"! + + A C D E F G H I ; J &     ",
"! 1 1 A K L M E N O P Q R &     ",
"# 1 1 A S T U V W X Y Z ; [     ",
"# ] ] ^ _ ` C 5 a b c d ; [     ",
"# ] e f g h i j k l m n L o     ",
"# p p q q r s t u v s s w x     ",
"$ q q y y z { | } ~  !!!#!$!%!  ",
"$ y z &!&!'!'!(!)!*!+!,!-!.!0!%!",
"$ &!'!'!'!1!1!2!% '!3!&   4!5!6!",
"% '!(!1!3!3!7!8!& 9!&       :!5!",
"& & & & & & & & & 9!          ;!"};
