/* XPM */ 
static char * xmule_xpm[] = {
"16 16 119 2",
"  	c None",
"! 	c black",
"# 	c #642909",
"$ 	c #632809",
"% 	c #D38B4B",
"& 	c #DCA36C",
"' 	c #D18849",
"( 	c #CE8240",
") 	c #AE6227",
"* 	c #C77631",
"+ 	c #B7692A",
", 	c #EBC999",
"- 	c #E4B886",
". 	c #D38E52",
"0 	c #9A5522",
"1 	c #77380F",
"2 	c #E1AF7C",
"3 	c #D7995A",
"4 	c #86461A",
"5 	c #8E4A1A",
"6 	c #D48D4E",
"7 	c #AE6327",
"8 	c #954F1D",
"9 	c #B86B2C",
": 	c #793910",
"; 	c #9B5724",
"< 	c #A65D24",
"= 	c #C67530",
"> 	c #5D2D0E",
"? 	c #DEAA7D",
"@ 	c #EDCFB5",
"A 	c #B56F36",
"B 	c #C0712F",
"C 	c #D89F6E",
"D 	c white",
"E 	c #DCD6D1",
"F 	c #8E4D1E",
"G 	c #45312A",
"H 	c #32373E",
"I 	c #70320E",
"J 	c #CF874A",
"K 	c #F6E7DA",
"L 	c #9C9691",
"M 	c #414041",
"N 	c #A7602A",
"O 	c #D4B595",
"P 	c #E5DCD2",
"Q 	c #F2F2F1",
"R 	c #BDBDB6",
"S 	c #32373D",
"T 	c #954E1D",
"U 	c #DCA25C",
"V 	c #D79453",
"W 	c #CA7B38",
"X 	c #D49259",
"Y 	c #C27739",
"Z 	c #C68338",
"[ 	c #CDAE80",
"] 	c #6B6C6F",
"^ 	c #171614",
"_ 	c #B3B3B0",
"` 	c #AB6026",
"a 	c #D48E4F",
"b 	c #EFD5A7",
"c 	c #E1B17E",
"d 	c #B4682C",
"e 	c #AD6228",
"f 	c #BE7D3F",
"g 	c #B6B6B0",
"h 	c #AAAAA7",
"i 	c #A0A09F",
"j 	c #E3E3E0",
"k 	c #CD813F",
"l 	c #D99A61",
"m 	c #DBA06B",
"n 	c #BD6F2E",
"o 	c #B67139",
"p 	c #D4CDC2",
"q 	c #E9E9E6",
"r 	c #F7F7F6",
"s 	c #F9F9F9",
"t 	c #EEEEEC",
"u 	c #6E310C",
"v 	c #B5682A",
"w 	c #D89C47",
"x 	c #C77731",
"y 	c #BA6C2C",
"z 	c #A15821",
"{ 	c #B68B67",
"| 	c #C9C2B9",
"} 	c #DCDCDA",
"~ 	c #E9E9E7",
" !	c #EFEFEE",
"!!	c #E7E7E5",
"#!	c #A55C25",
"$!	c #A65D25",
"%!	c #9C5420",
"&!	c #7C4D2D",
"'!	c #A0A09E",
"(!	c #CACAC6",
")!	c #64676B",
"*!	c #CCCCC7",
"+!	c #DFDFDB",
",!	c #878889",
"-!	c #97511E",
".!	c #833F14",
"0!	c #682B09",
"1!	c #652909",
"2!	c #572D16",
"3!	c #3F3330",
"4!	c #6D7072",
"5!	c #979797",
"6!	c #B3B3B2",
"7!	c #4E5257",
"8!	c #914C1B",
"9!	c #C37A31",
":!	c #E49C3F",
";!	c #D48C38",
"<!	c #AC6328",
"      # # #     # # # # # # #   ",
"    $ % #   # # & ' ( ( ) #     ",
"  # * + # # , - . ( 0 # #       ",
"  $ + 1 ( 2 3 ' 4 # #           ",
"# # 5 ( 6 ( 7 #                 ",
"  # 8 9 7 7 : ; #               ",
"# # < 9 = > ? @ A #             ",
"  # 9 B = C D E ! F # G H H     ",
"# I * ( * J K L M N O P Q R S   ",
"# T 6 U V W J X Y Z [ ] ^ Q _ H ",
"# ` a b c 6 W d e f g h i Q j H ",
"# 8 k l m 6 W n e o p q r s t H ",
"# u v k k w x y z { | } ~  !!!H ",
"# : # #!#!$!#!%!&!'!(!)!*!+!,!H ",
"u 5 -!.!0!1!2!3!H 4!5!6!7!H H   ",
"u 8!9!:!;!<!1!    H H H H       "};
