/* XPM */ 
static char * downloading_xpm[] = {
"16 16 69 1",
" 	c None",
"!	c black",
"#	c #148314",
"$	c #138013",
"%	c #106910",
"&	c #1FCE1F",
"'	c #19A919",
"(	c #1AAC1A",
")	c #148214",
"*	c #0E5E0E",
"+	c #26E226",
",	c #1DBE1D",
"-	c #1CBC1C",
".	c #158B15",
"0	c #0E5A0E",
"1	c #36E436",
"2	c #1EC81E",
"3	c #179817",
"4	c #0F640F",
"5	c #2DE32D",
"6	c #1FCB1F",
"7	c #18A118",
"8	c #117211",
"9	c #5CE95C",
":	c #25E125",
";	c #1FCD1F",
"<	c #189C18",
"=	c #106C10",
">	c #0F630F",
"?	c #0F610F",
"@	c #0F660F",
"A	c #117411",
"B	c #94F094",
"C	c #88EF88",
"D	c #7BED7B",
"E	c #70EC70",
"F	c #38E438",
"G	c #20D620",
"H	c #127612",
"I	c #116F11",
"J	c #127812",
"K	c #B6F5B6",
"L	c #AEF4AE",
"M	c #9EF29E",
"N	c #81EE81",
"O	c #56E856",
"P	c #22E122",
"Q	c #169316",
"R	c #137B13",
"S	c #127A12",
"T	c #C1F7C1",
"U	c #B8F5B8",
"V	c #A1F2A1",
"W	c #78ED78",
"X	c #3CE53C",
"Y	c #1FCF1F",
"Z	c #1BB21B",
"[	c #179A17",
"]	c #BBF6BB",
"^	c #ACF4AC",
"_	c #49E649",
"`	c #1FD01F",
"a	c #1BB01B",
"b	c #A8F3A8",
"c	c #46E646",
"d	c #1FCC1F",
"e	c #1AAE1A",
"f	c #3FE53F",
"g	c #3DE53D",
"                ",
"    ###$$$%     ",
"    #&'(()*     ",
"    #+,-(.0     ",
"    #12-(34     ",
"    #566(78     ",
"#####9:;(<=>?@A ",
"#BCDE9FG-<#HIIJ ",
" #KLMNOP2(Q#RS  ",
"  #TUVWXYZ[.#   ",
"   #]^C_`a[#    ",
"    #bCcde#     ",
"     #Nf6#      ",
"      #g#       ",
"       #        ",
"                "};
