/* XPM */ 
static char * downloads_xpm[] = {
"16 16 92 1",
" 	c None",
"!	c black",
"#	c #79AAE1",
"$	c #78A8DF",
"%	c #77A6DD",
"&	c #75A4DA",
"'	c #74A3D8",
"(	c #75A4D9",
")	c #76A6DC",
"*	c #6E8AB2",
"+	c #91B6E7",
",	c #FBFBFC",
"-	c #F9F9FC",
".	c #F6F8FB",
"0	c #F4F6FB",
"1	c #F2F5FB",
"2	c #F0F4FB",
"3	c #EDF2FA",
"4	c #747AA6",
"5	c #619AC6",
"6	c #89ADE3",
"7	c #F1F5FB",
"8	c #EFF3FA",
"9	c #ECF2FA",
":	c #EBF1FA",
";	c #676998",
"<	c #CACAFD",
"=	c #398CD9",
">	c #80A3DE",
"?	c #E9F0FA",
"@	c #E7EEF9",
"A	c #666896",
"B	c #696B9A",
"C	c #6A6C9C",
"D	c #767CA9",
"E	c #7799D9",
"F	c #E4EDF9",
"G	c #E2EBF9",
"H	c #DFEAF9",
"I	c #BBC8FE",
"J	c #6E8FD4",
"K	c #DDE9F9",
"L	c #37653B",
"M	c #2E4538",
"N	c #DAE7F8",
"O	c #59CC57",
"P	c #CAFAC9",
"Q	c #42D33F",
"R	c #41BA3F",
"S	c #3A8E3C",
"T	c #CEDBE4",
"U	c #DEE9F9",
"V	c #DBE8F8",
"W	c #D7E5F8",
"X	c #B2CBFE",
"Y	c #62CD60",
"Z	c #43EB3F",
"[	c #D8E6F8",
"]	c #D6E4F8",
"^	c #D3E2F8",
"_	c #5E5F90",
"`	c #33573A",
"a	c #3FAD3E",
"b	c #D0E0F7",
"c	c #B3CCFF",
"d	c #5B5C8D",
"e	c #9DF59B",
"f	c #4DA44F",
"g	c #409F3E",
"h	c #C4D5E3",
"i	c #CDDEF7",
"j	c #ACCDFF",
"k	c #545487",
"l	c #53A556",
"m	c #C2D4E3",
"n	c #D1E1F7",
"o	c #CFDFF7",
"p	c #CADCF7",
"q	c #4F5083",
"r	c #86F284",
"s	c #CCDDF7",
"t	c #C9DBF7",
"u	c #C8DBF7",
"v	c #2D4193",
"w	c #33419C",
"x	c #384499",
"y	c #3C4697",
"z	c #414994",
"{	c #464C91",
"|	c #4B4F8F",
"}	c #50528C",
"~	c #545489",
"                ",
"    #$%&'()$*   ",
"    +,-.012345  ",
"    6-.0789:;<= ",
"    >.0789?@ABCD",
"    E1289?@FGHID",
"    J23:?@FGHKID",
" LLLLLLLLMGHKNIC",
"  LOPQRSMTUVNWXA",
"   LYZSMTUV[]^X_",
"LLL`LaM`LLM]^bcd",
" LaefMSRgMh^bijk",
"  LaPlRgMmnoipjq",
"   LargMmnostujq",
"    LaMvwxyz{|}~",
"     M          "};
