/* XPM */ 
static char * knownclients_xpm[] = {
"16 16 22 1",
" 	c None",
"!	c black",
"#	c #777777",
"$	c #336633",
"%	c #006633",
"&	c #33CC66",
"'	c #99CC99",
"(	c #669999",
")	c #003333",
"*	c #009933",
"+	c #66CC66",
",	c #292929",
"-	c #339933",
".	c #33CC33",
"0	c #66CC99",
"1	c #C0DCC0",
"2	c #555555",
"3	c #CC9900",
"4	c #FFCC33",
"5	c #339966",
"6	c #FFFF00",
"7	c #333333",
"         #$$%   ",
"        #%&'(%  ",
"        )*+''%  ",
"      #,)*&+&%  ",
"      )%%%--%%  ",
"      %%%%)))%% ",
"      %%--*---'%",
"      %%-.+'0-0%",
"      ,,-&+1'$&%",
"  %%%  2-&+''$.%",
" %343%  ,$50+$.%",
"%33633%   2$$ $7",
"%46664%         ",
"%33633%         ",
" %343%          ",
"  %%%           "};
