/* XPM */ 
static char * onqueue_xpm[] = {
"16 16 21 1",
" 	c None",
"!	c black",
"#	c #003333",
"$	c #336633",
"%	c #99CC99",
"&	c #66CC99",
"'	c #009933",
"(	c #006633",
")	c #C0DCC0",
"*	c #33CC66",
"+	c #66CC66",
",	c #339933",
"-	c #669966",
".	c #555555",
"0	c #339966",
"1	c #333333",
"2	c #33CC33",
"3	c #CCFFCC",
"4	c #393939",
"5	c #868686",
"6	c #424242",
"    ##$         ",
"   #%&'(        ",
"  #&)&*##$      ",
"  #*&+#%&'(     ",
"  #(,#&)&*##$   ",
" #(#(#*&+#%&'(  ",
"#-,((#(,#&)&*'. ",
"#%,0#(#(#*&+*'1.",
"#+$#-,((#(,2'(#(",
"#+$#%,0#(#('(#( ",
"#*$#+$#-,((((',(",
"#2$#+$#%,0000,$(",
"11 #*$#+$+)&+2$(",
"   #2$#+$+3&+2$4",
"   11 #*$+)++,$5",
"      #2$*%+$$6 "};
