/* XPM */ 
static char * splitwindow_xpm[] = {
"16 16 12 1",
" 	c None",
"!	c black",
"#	c #009BE0",
"$	c #FED24C",
"%	c #19BAFF",
"&	c #19FFFF",
"'	c #72E500",
"(	c #FFFF00",
")	c #00FF00",
"*	c #FF0000",
"+	c #F3F3F3",
",	c #FFF7E0",
"                ",
"  ###########   ",
" #$%&%'%(%)%*#  ",
" #############  ",
" #+++++++++++#  ",
" #+++++++++++#  ",
" #+++++++++++#  ",
" #+++++++++++#  ",
" #,#,#,#,#,#,#  ",
" #,,,,,,,,,,,#  ",
" #,,,,,,,,,,,#  ",
" #,,,,,,,,,,,#  ",
" #,,,,,,,,,,,#  ",
"  ###########   ",
"                ",
"                "};
