/* XPM */ 
static char * uploading_xpm[] = {
"16 16 69 1",
" 	c None",
"!	c black",
"#	c #831614",
"$	c #E5403D",
"%	c #EE8381",
"&	c #E5423F",
"'	c #CB221F",
"(	c #F3A9A8",
")	c #EF8A88",
"*	c #E64846",
"+	c #CC221F",
",	c #AE1C1A",
"-	c #F6BCBB",
".	c #F4ADAC",
"0	c #E64B49",
"1	c #D0221F",
"2	c #B01D1B",
"3	c #9A1917",
"4	c #F7C2C1",
"5	c #F5B9B8",
"6	c #F2A2A1",
"7	c #ED7A78",
"8	c #E53F3C",
"9	c #CF221F",
":	c #B21D1B",
";	c #8B1715",
"<	c #F5B7B6",
"=	c #F4AFAE",
">	c #F29F9E",
"?	c #E85856",
"@	c #E12522",
"A	c #C8211E",
"B	c #AC1C1A",
"C	c #931816",
"D	c #7B1513",
"E	c #7A1412",
"F	c #F09594",
"G	c #ED7D7B",
"H	c #EC7270",
"I	c #E95E5C",
"J	c #E43B38",
"K	c #D62320",
"L	c #BC1E1C",
"M	c #9C1A18",
"N	c #761412",
"O	c #6F1211",
"P	c #781412",
"Q	c #E12825",
"R	c #CD221F",
"S	c #6C1110",
"T	c #63100F",
"U	c #61100F",
"V	c #66100F",
"W	c #741311",
"X	c #E3302D",
"Y	c #A11A18",
"Z	c #721311",
"[	c #E43936",
"]	c #981917",
"^	c #64100F",
"_	c #E22926",
"`	c #BE201D",
"a	c #5A0F0E",
"b	c #CE221F",
"c	c #A91B19",
"d	c #821614",
"e	c #5E0F0E",
"f	c #801513",
"g	c #691110",
"                ",
"       #        ",
"      #$#       ",
"     #%&'#      ",
"    #()*+,#     ",
"   #-.)0123#    ",
"  #456789:3;#   ",
" #<=>%?@ABC#DE  ",
"#F)GHIJKLM#NOOP ",
"#####IQRBMSTUVW ",
"    #X''BYZ     ",
"    #[ALB]^     ",
"    #_`LB;a     ",
"    #bcBBde     ",
"    ###fffg     ",
"                "};
