/* XPM */ 
static char * sharedfileslist_xpm[] = {
"16 16 51 1",
" 	c None",
"!	c black",
"#	c #80430B",
"$	c #C0854B",
"%	c #B3783D",
"&	c #A66B32",
"'	c #945820",
"(	c #F5C189",
")	c #E2A86A",
"*	c #DBA264",
"+	c #D49C5E",
",	c #7D420C",
"-	c #C89256",
".	c #8F551F",
"0	c #723A06",
"1	c #B7834B",
"2	c #87501D",
"3	c #737373",
"4	c #696969",
"5	c #794714",
"6	c #A16A27",
"7	c #6D3400",
"8	c #985D1E",
"9	c #CDCDCD",
":	c #F1F1F1",
";	c #8A8A8A",
"<	c #EFB77B",
"=	c #FDC689",
">	c #FFDFBD",
"?	c #FFEAD3",
"@	c #FFF1E2",
"A	c #FCD4A8",
"B	c #FED19F",
"C	c #DDA469",
"D	c #E8AF73",
"E	c #C98F54",
"F	c #9D5F24",
"G	c #8F5016",
"H	c #C68B50",
"I	c #FEDDB7",
"J	c #555555",
"K	c #4B4B4B",
"L	c #444444",
"M	c #E6AE71",
"N	c #FACB96",
"O	c #FEE6C9",
"P	c #D6A470",
"Q	c #2B2B2B",
"R	c #723E0E",
"S	c #EAB175",
"T	c #F8C184",
"                ",
"       #######  ",
"      #$$%&&##  ",
"     #######'#  ",
"     #()*++#'#  ",
"     #)*+++#',  ",
"     ,+----,.,  ",
"     011111020  ",
"33345666666#788 ",
"9:9;&<=>?@A66)B7",
"3334&CDEFG,HIB7 ",
"JJKL&EMNIOOIP7  ",
"KKKQR7$STD$77   ",
"QQQ   77777     ",
"                ",
"                "};
