/* XPM */ 
static char * log_xpm[] = {
"16 16 74 1",
" 	c None",
"!	c #00519C",
"#	c black",
"$	c #00478B",
"%	c #00407D",
"&	c #00356B",
"'	c #A8C7E4",
"(	c #B8CFE3",
")	c #B4CDE3",
"*	c #AECAE4",
"+	c #A0C4E4",
",	c #E4EDF5",
"-	c #DBE9F6",
".	c #CEE3F6",
"0	c #BFDCF7",
"1	c #98BCDC",
"2	c #95BBDC",
"3	c #ECF4FC",
"4	c #8FB8DD",
"5	c #DCEDFC",
"6	c #8CB6DD",
"7	c #C4E4FC",
"8	c #F3F7FB",
"9	c #BDD6EC",
":	c #E6F2FC",
";	c #B4D2ED",
"<	c #D5EBFC",
"=	c #AACDED",
">	c #CCE5FD",
"?	c #D1E7FD",
"@	c #BCDFFD",
"A	c #81B2DE",
"B	c #2C7DC7",
"C	c #7CB2E2",
"D	c #5B9AD4",
"E	c #5497D4",
"F	c #70ABDD",
"G	c #84B8E6",
"H	c #B5DDFC",
"I	c #AEDBFB",
"J	c #7BAFDE",
"K	c #99C6EC",
"L	c #BDE2FA",
"M	c #A3D4FA",
"N	c #CFE8FB",
"O	c #ABD7FC",
"P	c #9BD2FA",
"Q	c #247AC7",
"R	c #4C94D4",
"S	c #4692D4",
"T	c #60A3DE",
"U	c #8BC3EF",
"V	c #92CEFA",
"W	c #89CAFA",
"X	c #003E7A",
"Y	c #6BAFE4",
"Z	c #408FD4",
"[	c #1F78C7",
"]	c #1E77C7",
"^	c #3D8DD4",
"_	c #519EDD",
"`	c #5DA7E4",
"a	c #7CC3F8",
"b	c #95D0F8",
"c	c #8BCBF7",
"d	c #86CBF9",
"e	c #82C7F9",
"f	c #75BFF6",
"g	c #64B3F3",
"h	c #6DB9F2",
"i	c #68B5EF",
"j	c #69B7F3",
"k	c #5EADF1",
"l	c #57A8EE",
"!!! !!! $$$ $%& ",
"!'(!)'*!''+$+'& ",
"!,! !-! !.$ $0& ",
"!,1!232!456$67& ",
"!88933:;55<=>7& ",
"!3333::55<?>7@& ",
"!3ABCDBBBEFG7H& ",
"!::::55<<>77@I& ",
"!5JDBBBEK7L@HM& ",
"$<<<N>>77LHHOP& ",
"$>FEQQRQQSTUMV& ",
"$7LL@HHIIMMMPW& ",
"XHSQQSYZ[]^_`a& ",
"XbVWccdddeeafg& ",
"Xhhhiihhhjggkl& ",
"&&&&&&&&&&&&&&& "};
