/* XPM */ 
static char * myinfo_xpm[] = {
"16 16 103 2",
"  	c None",
"! 	c black",
"# 	c #5A77CB",
"$ 	c #B3DAFF",
"% 	c #B5D8FF",
"& 	c #B2D6FF",
"' 	c #BFE4FF",
"( 	c #AACBFF",
") 	c #95B9FF",
"* 	c #93B8FA",
"+ 	c white",
", 	c #FFFFFD",
"- 	c #8EB3F6",
". 	c #9ABEFF",
"0 	c #B5D9FF",
"1 	c #98BAFF",
"2 	c #8BADFF",
"3 	c #93B5FF",
"4 	c #87AFFC",
"5 	c #8DB4FA",
"6 	c #8DAEFF",
"7 	c #A4C9FF",
"8 	c #7E9EFF",
"9 	c #85A7FF",
": 	c #8CAFFF",
"; 	c #97BBFF",
"< 	c #7CA3F9",
"= 	c #82A9F7",
"> 	c #93B6FF",
"? 	c #90B2FF",
"@ 	c #88AAFF",
"A 	c #82A4FF",
"B 	c #5B71AD",
"C 	c #779AFD",
"D 	c #7597F4",
"E 	c #7A9FFF",
"F 	c #7EA0FB",
"G 	c #81A0EA",
"H 	c #82A8FF",
"I 	c #83A3FF",
"J 	c #789AF8",
"K 	c #81A7FE",
"L 	c #5C6B95",
"M 	c #506AB3",
"N 	c #6F95FA",
"O 	c #6D8FEC",
"P 	c #7797F6",
"Q 	c #7599FF",
"R 	c #5D88F5",
"S 	c #7697EC",
"T 	c #789BFF",
"U 	c #799AF9",
"V 	c #7093EF",
"W 	c #769CFD",
"X 	c #698CF2",
"Y 	c #6585E3",
"Z 	c #6D8EEB",
"[ 	c #6D90F2",
"] 	c #5F86F4",
"^ 	c #6D8EE8",
"_ 	c #6B91F8",
"` 	c #7191EE",
"a 	c #6888E5",
"b 	c #6F97FB",
"c 	c #6088F4",
"d 	c #5B7BD8",
"e 	c #6386E2",
"f 	c #6184E7",
"g 	c #5075E2",
"h 	c #5E81DE",
"i 	c #5F84EB",
"j 	c #6688E4",
"k 	c #6080DD",
"l 	c #6A91F6",
"m 	c #5778D7",
"n 	c #5879D4",
"o 	c #5577DB",
"p 	c #3862D3",
"q 	c #4D70D0",
"r 	c #5075E0",
"s 	c #5E7ED9",
"t 	c #6386E7",
"u 	c #535D76",
"v 	c #5C85F8",
"w 	c #496BCC",
"x 	c #4A6CCA",
"y 	c #6581CD",
"z 	c #4E71D9",
"{ 	c #628BF5",
"| 	c #4E5A7D",
"} 	c #557CF0",
"~ 	c #4F72D8",
" !	c #5976C1",
"!!	c #4767BA",
"#!	c #4464BA",
"$!	c #5874C0",
"%!	c #5D80E3",
"&!	c #547FF1",
"'!	c #576384",
"(!	c #466DDC",
")!	c #4972E3",
"*!	c #4A73E5",
"+!	c #466DDB",
"                                ",
"            # # # #             ",
"        # # $ % & ' # #         ",
"      # ( ) * + , - . 0 #       ",
"    # 1 2 3 4 + + 5 ) 6 7 #     ",
"    # 8 9 : ; < = > ? @ A #     ",
"  B C D E F + + + G H I J K L   ",
"  M N O P Q R + + S T U V W L   ",
"  L X Y Z [ ] + + ^ _ ` a b L   ",
"  L c d e f g + + h i j k l L   ",
"    L m n o p + + q r s t L     ",
"    u v w x + + + + y z { |     ",
"      u } ~  !!!#!$!%!&!u       ",
"        '!u (!)!*!+!u u         ",
"            u u u u             ",
"                                "};