/* XPM */ 
static char * serverinfo_xpm[] = {
"16 16 115 2",
"  	c None",
"! 	c black",
"# 	c #BBC1CA",
"$ 	c #A9B9CB",
"% 	c #93A5BB",
"& 	c #8D97A2",
"' 	c #AEB3BB",
"( 	c #A6ADB6",
") 	c #92AED1",
"* 	c #99BDE5",
"+ 	c #A2CAF9",
", 	c #AED7FF",
"- 	c #B6DBFF",
". 	c #6F89A9",
"0 	c #6E89A9",
"1 	c #6580A0",
"2 	c #8C98A6",
"3 	c #9FA7B2",
"4 	c #9EC3F1",
"5 	c #A5CBF8",
"6 	c #A8CFFE",
"7 	c #ACD1FF",
"8 	c #B3D5FF",
"9 	c #6E8AAB",
": 	c #708BAC",
"; 	c #6D88A9",
"< 	c #96A2B0",
"= 	c #A2AAB4",
"> 	c #9EC5F4",
"? 	c #A7CEFD",
"@ 	c #ABD1FF",
"A 	c #AED2FF",
"B 	c #B6D7FF",
"C 	c #5C636E",
"D 	c #636C79",
"E 	c #596A7E",
"F 	c #9CA5AF",
"G 	c #A2C9F9",
"H 	c #AAD0FF",
"I 	c #B1D4FF",
"J 	c #B9D9FF",
"K 	c #00FF00",
"L 	c #31574F",
"M 	c #FF0000",
"N 	c #99A3AE",
"O 	c #A3ABB5",
"P 	c #A4CBFC",
"Q 	c #B0D3FF",
"R 	c #BCDAFF",
"S 	c #69738A",
"T 	c #6B798C",
"U 	c #5E7189",
"V 	c #ADB4BC",
"W 	c #A6ADB7",
"X 	c #A4CCFC",
"Y 	c #B2D4FF",
"Z 	c #B5D6FF",
"[ 	c #BEDBFF",
"] 	c #738EB1",
"^ 	c #7591B2",
"_ 	c #7490B3",
"` 	c #ADB6C0",
"a 	c #A8AFB8",
"b 	c #A4CCFD",
"c 	c #AFD3FF",
"d 	c #B7D7FF",
"e 	c #C0DCFF",
"f 	c #738EB0",
"g 	c #7691B1",
"h 	c #738FB0",
"i 	c #AFB7C1",
"j 	c #7272FF",
"k 	c #1D1DFF",
"l 	c #5B60CB",
"m 	c #96B9FF",
"n 	c #B4D6FF",
"o 	c #B9D8FF",
"p 	c #C2DDFF",
"q 	c #738FB1",
"r 	c #7691B3",
"s 	c #B0B8C2",
"t 	c #0000FF",
"u 	c white",
"v 	c #1217FE",
"w 	c #9EBDFF",
"x 	c #BAD9FF",
"y 	c #C3DEFF",
"z 	c #7792B4",
"{ 	c #7693B6",
"| 	c #505FFF",
"} 	c #B8D7FF",
"~ 	c #C5DEFF",
" !	c #7591B4",
"!!	c #7893B4",
"#!	c #7793B6",
"$!	c #BFDBFF",
"%!	c #C8E1FF",
"&!	c #7693B7",
"'!	c #7995B7",
"(!	c #7793B7",
")!	c #C9E2FF",
"*!	c #7794B8",
"+!	c #7A96B8",
",!	c #7692B6",
"-!	c #616AD1",
".!	c #CAE1FC",
"0!	c #BFDCFF",
"1!	c #CBE2FF",
"2!	c #7594B9",
"3!	c #7994B6",
"4!	c #A5ADB6",
"5!	c #A5B0BF",
"6!	c #95A9C0",
"7!	c #95A0AE",
"8!	c #A3ABB4",
"              # # # $ % & '     ",
"          ( ) * + , - . . 0 1 2 ",
"          3 4 5 6 7 8 . 9 : ; < ",
"          = > ? @ A B . C D E F ",
"          = G H A I J . K L M N ",
"          O P 7 Q 8 R . S T U V ",
"          W X A Y Z [ . ] ^ _ ` ",
"          a b c 8 d e . f g h i ",
"    j k k l m I n o p . q r q s ",
"  k t u u t v w B x y . _ z { i ",
"j t t t t t t | } R ~ .  !!!#!i ",
"t t t u u t t t x $!%!. &!'!(!# ",
"t t t u u t t t R e )!. *!+!,!# ",
"j t t u u t t -!.!0!1!. 2!&!3!4!",
"  k t u u t k     # 5!6!7!8!    ",
"    j k k j                     "};
