/* XPM */ 
static char * server_xpm[] = {
"16 16 101 2",
"  	c None",
"! 	c black",
"# 	c #BBC1CA",
"$ 	c #A9B9CB",
"% 	c #93A5BB",
"& 	c #8D97A2",
"' 	c #AEB3BB",
"( 	c #92AED1",
") 	c #99BDE5",
"* 	c #A2CAF9",
"+ 	c #AED7FF",
", 	c #B6DBFF",
"- 	c #6F89A9",
". 	c #6E89A9",
"0 	c #6580A0",
"1 	c #8C98A6",
"2 	c #9EC3F1",
"3 	c #A5CBF8",
"4 	c #A8CFFE",
"5 	c #ACD1FF",
"6 	c #B3D5FF",
"7 	c #6E8AAB",
"8 	c #708BAC",
"9 	c #6D88A9",
": 	c #96A2B0",
"; 	c #9EC5F4",
"< 	c #A7CEFD",
"= 	c #ABD1FF",
"> 	c #AED2FF",
"? 	c #B6D7FF",
"@ 	c #5C636E",
"A 	c #636C79",
"B 	c #596A7E",
"C 	c #9CA5AF",
"D 	c #A2C9F9",
"E 	c #AAD0FF",
"F 	c #B1D4FF",
"G 	c #B9D9FF",
"H 	c #00FF00",
"I 	c #31574F",
"J 	c #FF0000",
"K 	c #99A3AE",
"L 	c #A4CBFC",
"M 	c #B0D3FF",
"N 	c #BCDAFF",
"O 	c #69738A",
"P 	c #6B798C",
"Q 	c #5E7189",
"R 	c #ADB4BC",
"S 	c #A4CCFC",
"T 	c #B2D4FF",
"U 	c #B5D6FF",
"V 	c #BEDBFF",
"W 	c #738EB1",
"X 	c #7591B2",
"Y 	c #7490B3",
"Z 	c #ADB6C0",
"[ 	c #A4CCFD",
"] 	c #AFD3FF",
"^ 	c #B7D7FF",
"_ 	c #C0DCFF",
"` 	c #738EB0",
"a 	c #7691B1",
"b 	c #738FB0",
"c 	c #AFB7C1",
"d 	c #A9D0FF",
"e 	c #B4D6FF",
"f 	c #B9D8FF",
"g 	c #C2DDFF",
"h 	c #738FB1",
"i 	c #7691B3",
"j 	c #B0B8C2",
"k 	c #A7CFFE",
"l 	c #B2D5FF",
"m 	c #BAD9FF",
"n 	c #C3DEFF",
"o 	c #7792B4",
"p 	c #7693B6",
"q 	c #ABD1FE",
"r 	c #B8D7FF",
"s 	c #C5DEFF",
"t 	c #7591B4",
"u 	c #7893B4",
"v 	c #7793B6",
"w 	c #ADD2FE",
"x 	c #BDDBFF",
"y 	c #C6E0FF",
"z 	c #7592B6",
"{ 	c #7994B6",
"| 	c #7794B7",
"} 	c #AED2FD",
"~ 	c #C9E2FF",
" !	c #7794B8",
"!!	c #7A96B8",
"#!	c #7692B6",
"$!	c #CAE1FC",
"%!	c #BFDCFF",
"&!	c #CBE2FF",
"'!	c #7594B9",
"(!	c #7693B7",
")!	c #A4BAD3",
"          # # # $ % & '         ",
"      # ( ) * + , - - . 0 1     ",
"      # 2 3 4 5 6 - 7 8 9 :     ",
"      # ; < = > ? - @ A B C     ",
"      # D E > F G - H I J K     ",
"      # L 5 M 6 N - O P Q R     ",
"      # S > T U V - W X Y Z     ",
"      # [ ] 6 ^ _ - ` a b c     ",
"      # d F e f g - h i h j     ",
"      # k l ? m n - Y o p c     ",
"      # q 6 r N s - t u v c     ",
"      # w U f x y - z { | c     ",
"      # } ? N _ ~ -  !!!#!#     ",
"        # # $!%!&!- '!(!{ #     ",
"            # # # )!# #         ",
"                                "};
