/* XPM */ 
static char * servers_xpm[] = {
"16 16 126 2",
"  	c None",
"! 	c black",
"# 	c #AFB7C1",
"$ 	c #A9B9CB",
"% 	c #93A5BB",
"& 	c #8D97A2",
"' 	c #AEB3BB",
"( 	c #FFFF00",
") 	c #FFFFBF",
"* 	c #D3DD46",
"+ 	c #A6ADB6",
", 	c #92AED1",
"- 	c #99BDE5",
". 	c #A2CAF9",
"0 	c #AED7FF",
"1 	c #B6DBFF",
"2 	c #6F89A9",
"3 	c #6E89A9",
"4 	c #6580A0",
"5 	c #8C98A6",
"6 	c #9FA7B2",
"7 	c #9EC3F1",
"8 	c #A5CBF8",
"9 	c #A8CFFE",
": 	c #ACD1FF",
"; 	c #B3D5FF",
"< 	c #6E8AAB",
"= 	c #708BAC",
"> 	c #6D88A9",
"? 	c #96A2B0",
"@ 	c #A2AAB4",
"A 	c #9EC5F4",
"B 	c #A7CEFD",
"C 	c #ABD1FF",
"D 	c #AED2FF",
"E 	c #B6D7FF",
"F 	c #5C636E",
"G 	c #636C79",
"H 	c #596A7E",
"I 	c #9CA5AF",
"J 	c #A2C9F9",
"K 	c #AAD0FF",
"L 	c #B1D4FF",
"M 	c #B9D9FF",
"N 	c #00FF00",
"O 	c #31574F",
"P 	c #FF0000",
"Q 	c #99A3AE",
"R 	c #41FF41",
"S 	c #CFFFCF",
"T 	c #5BE34C",
"U 	c #A3ABB5",
"V 	c #A4CBFC",
"W 	c #B0D3FF",
"X 	c #BCDAFF",
"Y 	c #69738A",
"Z 	c #6B798C",
"[ 	c #5E7189",
"] 	c #ADB4BC",
"^ 	c #5DE35D",
"_ 	c #A6ADB7",
"` 	c #A4CCFC",
"a 	c #B2D4FF",
"b 	c #B5D6FF",
"c 	c #BEDBFF",
"d 	c #738EB1",
"e 	c #7591B2",
"f 	c #7490B3",
"g 	c #ADB6C0",
"h 	c #A8AFB8",
"i 	c #A4CCFD",
"j 	c #AFD3FF",
"k 	c #B7D7FF",
"l 	c #C0DCFF",
"m 	c #738EB0",
"n 	c #7691B1",
"o 	c #738FB0",
"p 	c #A6AEB8",
"q 	c #A9D0FF",
"r 	c #B4D6FF",
"s 	c #B9D8FF",
"t 	c #C2DDFF",
"u 	c #738FB1",
"v 	c #7691B3",
"w 	c #B0B8C2",
"x 	c #FF7C7C",
"y 	c #FFDEDE",
"z 	c #C33F4C",
"{ 	c #AAB1B9",
"| 	c #A7CFFE",
"} 	c #B2D5FF",
"~ 	c #BAD9FF",
" !	c #C3DEFF",
"!!	c #7792B4",
"#!	c #7693B6",
"$!	c #B20000",
"%!	c #A9B0BB",
"&!	c #ABD1FE",
"'!	c #B8D7FF",
"(!	c #C5DEFF",
")!	c #7591B4",
"*!	c #7893B4",
"+!	c #7793B6",
",!	c #ADD2FE",
"-!	c #BFDBFF",
".!	c #C8E1FF",
"0!	c #7693B7",
"1!	c #7995B7",
"2!	c #7793B7",
"3!	c #AFB6BF",
"4!	c #AED2FD",
"5!	c #C9E2FF",
"6!	c #7794B8",
"7!	c #7A96B8",
"8!	c #7692B6",
"9!	c #A5B1BF",
":!	c #CAE1FC",
";!	c #BFDCFF",
"<!	c #CBE2FF",
"=!	c #7594B9",
">!	c #7994B6",
"?!	c #A5ADB6",
"@!	c #A5B0BF",
"A!	c #95A9C0",
"B!	c #95A0AE",
"C!	c #A3ABB4",
"              # # # $ % & '     ",
"  ( ) *   + , - . 0 1 2 2 3 4 5 ",
"  ( * *   6 7 8 9 : ; 2 < = > ? ",
"  * * *   @ A B C D E 2 F G H I ",
"          @ J K D L M 2 N O P Q ",
"  R S T   U V : W ; X 2 Y Z [ ] ",
"  R ^ ^   _ ` D a b c 2 d e f g ",
"  ^ ^ ^   h i j ; k l 2 m n o # ",
"          p q L r s t 2 u v u w ",
"  x y z   { | } E ~  !2 f !!#!# ",
"  x z $!  %!&!; '!X (!2 )!*!+!# ",
"  $!$!$!  %!,!E ~ -!.!2 0!1!2!# ",
"          3!4!E X l 5!2 6!7!8!# ",
"            # 9!:!;!<!2 =!0!>!?!",
"                # # @!A!B!C!    ",
"                                "};
