/* XPM */ 
static char * serveradd_xpm[] = {
"16 16 102 2",
"  	c None",
"! 	c black",
"# 	c #007A1C",
"$ 	c #AFB6BF",
"% 	c #A9B9CB",
"& 	c #93A5BB",
"' 	c #8D97A2",
"( 	c #AEB3BB",
") 	c #00FF00",
"* 	c #92AED1",
"+ 	c #99BDE5",
", 	c #A2CAF9",
"- 	c #AED7FF",
". 	c #B6DBFF",
"0 	c #6F89A9",
"1 	c #6E89A9",
"2 	c #6580A0",
"3 	c #8C98A6",
"4 	c #A8CFFE",
"5 	c #ACD1FF",
"6 	c #B3D5FF",
"7 	c #6E8AAB",
"8 	c #708BAC",
"9 	c #6D88A9",
": 	c #96A2B0",
"; 	c #ABD1FF",
"< 	c #AED2FF",
"= 	c #B6D7FF",
"> 	c #5C636E",
"? 	c #636C79",
"@ 	c #596A7E",
"A 	c #9CA5AF",
"B 	c #B1D4FF",
"C 	c #B9D9FF",
"D 	c #31574F",
"E 	c #FF0000",
"F 	c #99A3AE",
"G 	c #B0D3FF",
"H 	c #BCDAFF",
"I 	c #69738A",
"J 	c #6B798C",
"K 	c #5E7189",
"L 	c #ADB4BC",
"M 	c #A4CCFC",
"N 	c #B2D4FF",
"O 	c #B5D6FF",
"P 	c #BEDBFF",
"Q 	c #738EB1",
"R 	c #7591B2",
"S 	c #7490B3",
"T 	c #ADB6C0",
"U 	c #A4CCFD",
"V 	c #AFD3FF",
"W 	c #B7D7FF",
"X 	c #C0DCFF",
"Y 	c #738EB0",
"Z 	c #7691B1",
"[ 	c #738FB0",
"] 	c #AFB7C1",
"^ 	c #A6AEB8",
"_ 	c #A9D0FF",
"` 	c #B4D6FF",
"a 	c #B9D8FF",
"b 	c #C2DDFF",
"c 	c #738FB1",
"d 	c #7691B3",
"e 	c #B0B8C2",
"f 	c #AAB1B9",
"g 	c #A7CFFE",
"h 	c #B2D5FF",
"i 	c #BAD9FF",
"j 	c #C3DEFF",
"k 	c #7792B4",
"l 	c #7693B6",
"m 	c #A9B0BB",
"n 	c #ABD1FE",
"o 	c #B8D7FF",
"p 	c #C5DEFF",
"q 	c #7591B4",
"r 	c #7893B4",
"s 	c #7793B6",
"t 	c #ADD2FE",
"u 	c #BFDBFF",
"v 	c #C8E1FF",
"w 	c #7693B7",
"x 	c #7995B7",
"y 	c #7793B7",
"z 	c #BBC1CA",
"{ 	c #AED2FD",
"| 	c #C9E2FF",
"} 	c #7794B8",
"~ 	c #7A96B8",
" !	c #7692B6",
"!!	c #A5B1BF",
"#!	c #CAE1FC",
"$!	c #BFDCFF",
"%!	c #CBE2FF",
"&!	c #7594B9",
"'!	c #7994B6",
"(!	c #A5B0BF",
")!	c #97ABC3",
"*!	c #A0A9B4",
"    # # # #   $ $ $ % & ' (     ",
"    # ) ) # * + , - . 0 0 1 2 3 ",
"# # # ) ) # # # 4 5 6 0 7 8 9 : ",
"# ) ) ) ) ) ) # ; < = 0 > ? @ A ",
"# ) ) ) ) ) ) # < B C 0 ) D E F ",
"# # # ) ) # # # G 6 H 0 I J K L ",
"    # ) ) # M < N O P 0 Q R S T ",
"    # # # # U V 6 W X 0 Y Z [ ] ",
"          ^ _ B ` a b 0 c d c e ",
"          f g h = i j 0 S k l ] ",
"          m n 6 o H p 0 q r s ] ",
"          m t = i u v 0 w x y z ",
"          $ { = H X | 0 } ~  !z ",
"            $ !!#!$!%!0 &!w '!$ ",
"                $ $ (!)!*!$     ",
"                                "};