/* XPM */ 
static char * serverupdate_xpm[] = {
"16 16 120 2",
"  	c None",
"! 	c black",
"# 	c #AFB7C1",
"$ 	c #A9B9CB",
"% 	c #93A5BB",
"& 	c #8D97A2",
"' 	c #AEB3BB",
"( 	c #FF1414",
") 	c #A6ADB6",
"* 	c #92AED1",
"+ 	c #99BDE5",
", 	c #A2CAF9",
"- 	c #AED7FF",
". 	c #B6DBFF",
"0 	c #6F89A9",
"1 	c #6E89A9",
"2 	c #6580A0",
"3 	c #8C98A6",
"4 	c #FEC1C1",
"5 	c #9FA7B2",
"6 	c #9EC3F1",
"7 	c #A5CBF8",
"8 	c #A8CFFE",
"9 	c #ACD1FF",
": 	c #B3D5FF",
"; 	c #6E8AAB",
"< 	c #708BAC",
"= 	c #6D88A9",
"> 	c #96A2B0",
"? 	c #FEADAD",
"@ 	c #A2AAB4",
"A 	c #9EC5F4",
"B 	c #A7CEFD",
"C 	c #ABD1FF",
"D 	c #AED2FF",
"E 	c #B6D7FF",
"F 	c #5C636E",
"G 	c #636C79",
"H 	c #596A7E",
"I 	c #9CA5AF",
"J 	c #FF7A7A",
"K 	c #A2C9F9",
"L 	c #AAD0FF",
"M 	c #B1D4FF",
"N 	c #B9D9FF",
"O 	c #00FF00",
"P 	c #31574F",
"Q 	c #FF0000",
"R 	c #99A3AE",
"S 	c #FF7676",
"T 	c #A3ABB5",
"U 	c #A4CBFC",
"V 	c #B0D3FF",
"W 	c #BCDAFF",
"X 	c #69738A",
"Y 	c #6B798C",
"Z 	c #5E7189",
"[ 	c #ADB4BC",
"] 	c #A6ADB7",
"^ 	c #A4CCFC",
"_ 	c #B2D4FF",
"` 	c #B5D6FF",
"a 	c #BEDBFF",
"b 	c #738EB1",
"c 	c #7591B2",
"d 	c #7490B3",
"e 	c #ADB6C0",
"f 	c #A8AFB8",
"g 	c #A4CCFD",
"h 	c #AFD3FF",
"i 	c #B7D7FF",
"j 	c #C0DCFF",
"k 	c #738EB0",
"l 	c #7691B1",
"m 	c #738FB0",
"n 	c #A6AEB8",
"o 	c #A9D0FF",
"p 	c #B4D6FF",
"q 	c #B9D8FF",
"r 	c #C2DDFF",
"s 	c #738FB1",
"t 	c #7691B3",
"u 	c #B0B8C2",
"v 	c #AAB1B9",
"w 	c #A7CFFE",
"x 	c #B2D5FF",
"y 	c #BAD9FF",
"z 	c #C3DEFF",
"{ 	c #7792B4",
"| 	c #7693B6",
"} 	c #A9B0BB",
"~ 	c #ABD1FE",
" !	c #B8D7FF",
"!!	c #C5DEFF",
"#!	c #7591B4",
"$!	c #7893B4",
"%!	c #7793B6",
"&!	c #ADD2FE",
"'!	c #BFDBFF",
"(!	c #C8E1FF",
")!	c #7693B7",
"*!	c #7995B7",
"+!	c #7793B7",
",!	c #AFB6BF",
"-!	c #AED2FD",
".!	c #C9E2FF",
"0!	c #7794B8",
"1!	c #7A96B8",
"2!	c #7692B6",
"3!	c #A5B1BF",
"4!	c #CAE1FC",
"5!	c #BFDCFF",
"6!	c #CBE2FF",
"7!	c #7594B9",
"8!	c #7994B6",
"9!	c #A5ADB6",
":!	c #A5B0BF",
";!	c #95A9C0",
"<!	c #95A0AE",
"=!	c #A3ABB4",
"              # # # $ % & '     ",
"  (       ) * + , - . 0 0 1 2 3 ",
"( 4 (     5 6 7 8 9 : 0 ; < = > ",
"( ? (     @ A B C D E 0 F G H I ",
"( J (     @ K L D M N 0 O P Q R ",
"S ( S     T U 9 V : W 0 X Y Z [ ",
"  (       ] ^ D _ ` a 0 b c d e ",
"  (       f g h : i j 0 k l m # ",
"          n o M p q r 0 s t s u ",
"  (       v w x E y z 0 d { | # ",
"S 4 S     } ~ :  !W !!0 #!$!%!# ",
"  (       } &!E y '!(!0 )!*!+!# ",
"          ,!-!E W j .!0 0!1!2!# ",
"            # 3!4!5!6!0 7!)!8!9!",
"                # # :!;!<!=!    ",
"                                "};