/* XPM */ 
static char * connection_xpm[] = {
"16 16 52 1",
" 	c None",
"!	c black",
"#	c #566675",
"$	c #414D58",
"%	c #AAB2BA",
"&	c white",
"'	c #EAEDF0",
"(	c #A20000",
")	c #D4DAE0",
"*	c #2D0000",
"+	c #5A0000",
",	c #EC2121",
"-	c #965962",
".	c #884950",
"0	c #830000",
"1	c #DA0000",
"2	c #FF5656",
"3	c #E17275",
"4	c #D01414",
"5	c #FF4343",
"6	c #A50A0A",
"7	c #7A0000",
"8	c #8A0000",
"9	c #970000",
":	c #8C0000",
";	c #920000",
"<	c #9A0000",
"=	c #F33A3A",
">	c #ED3636",
"?	c #E73232",
"@	c #AA0000",
"A	c #FF7070",
"B	c #FF8484",
"C	c #FF9595",
"D	c #F36161",
"E	c #EC2D2D",
"F	c #D00000",
"G	c #B30000",
"H	c #E51919",
"I	c #FF7373",
"J	c #FF8A8A",
"K	c #FFA1A1",
"L	c #F36464",
"M	c #D02121",
"N	c #BC2121",
"O	c #860000",
"P	c #870000",
"Q	c #4B5966",
"R	c #C4C9CE",
"S	c #AAB1B8",
"T	c #86919C",
"U	c #303941",
"     #$   #$    ",
"    #%$  #%$    ",
"    #&$  #&$    ",
"    #'$  #'$    ",
"   (#)$*+#)$*++ ",
"  (,-).01-).00++",
" (,2,3445,34678+",
" ((((99:::::7;<+",
" (22255=>???7@<+",
" (2ABCCCCBD?7@<+",
" (2EFGGGGFH?7(<+",
" (2IJKKKKJL?7<8+",
" (M>FGGGGFHN78+ ",
"  (M255=>?N7O+  ",
"   ::PPP7777+   ",
"     QRST$U     "};
