/* XPM */ 
static char * directories_xpm[] = {
"16 16 75 1",
" 	c None",
"!	c black",
"#	c #395A08",
"$	c #4E770C",
"%	c #639410",
"&	c #5F8F0F",
"'	c #547F0D",
"(	c #476D0B",
")	c #314E08",
"*	c #5D8C10",
"+	c #609010",
",	c #456B0B",
"-	c #294208",
".	c #4C770F",
"0	c #558210",
"1	c #5B8910",
"2	c #33540A",
"3	c #47720E",
"4	c #527E10",
"5	c #789848",
"6	c #B7EA6B",
"7	c #A2D05C",
"8	c #638D2A",
"9	c #3E670D",
":	c #5C7C2E",
";	c #D7F7A7",
"<	c #E0F9BC",
"=	c white",
">	c #F1FDE0",
"?	c #E2FAC0",
"@	c #CAF38C",
"A	c #AFDC6E",
"B	c #5F8727",
"C	c #8FC245",
"D	c #B9EB6E",
"E	c #B8EA6C",
"F	c #BCED74",
"G	c #C1EF7D",
"H	c #D6F4AA",
"I	c #E2F5C7",
"J	c #CAEA9D",
"K	c #709D2D",
"L	c #36540B",
"M	c #547E19",
"N	c #9DE337",
"O	c #9EE337",
"P	c #9FE338",
"Q	c #A5E543",
"R	c #AAE74E",
"S	c #B1EA5B",
"T	c #B7EE66",
"U	c #6FA322",
"V	c #72AF18",
"W	c #8DD71D",
"X	c #8CD71D",
"Y	c #8DD71E",
"Z	c #8CD71C",
"[	c #8BD619",
"]	c #8AD618",
"^	c #7EBF1D",
"_	c #588813",
"`	c #7ABA1B",
"a	c #88CF1E",
"b	c #87CE1E",
"c	c #87CD1E",
"d	c #5E8427",
"e	c #4F7B11",
"f	c #5D9014",
"g	c #6DA717",
"h	c #7ABA1A",
"i	c #7DBB20",
"j	c #4E7910",
"k	c #5C8D13",
"l	c #6BA317",
"m	c #588713",
"                ",
"   ########     ",
"  #$%%%%&'()))) ",
"  #********+++,-",
"  #.........011-",
" ---------23334-",
"-566666678-2933-",
"-:;<==>?@AB--29-",
" -CDE66FGHIJK-L-",
" -MNNOOPQRSTTU--",
"  -VWXWWYZ[]]^--",
"  -_`abcccccccd-",
"   -efghhhhhhhi-",
"    ----jkllllm-",
"        ------- ",
"                "};
