/* XPM */ 
static char * display_xpm[] = {
"16 16 100 2",
"  	c None",
"! 	c black",
"# 	c #DFDFE0",
"$ 	c #C9C8DC",
"% 	c #BEBED3",
"& 	c #9F9FC6",
"' 	c #D2D2D2",
"( 	c #C3C3CC",
") 	c #C2C2D7",
"* 	c #ADADC2",
"+ 	c #A0A0BF",
", 	c #9FB3CB",
"- 	c #9DC2DC",
". 	c #90BADE",
"0 	c #807AA2",
"1 	c #CECED5",
"2 	c #8FA0B1",
"3 	c #91B9D0",
"4 	c #A2D0E3",
"5 	c #BEF3F9",
"6 	c #C9FDFF",
"7 	c #C2FAFF",
"8 	c #AEF0FF",
"9 	c #98E5FF",
": 	c #716A9C",
"; 	c #9ACEEB",
"< 	c #8CDFFF",
"= 	c #9EE8FF",
"> 	c #B4F3FF",
"? 	c #A0E9FF",
"@ 	c #8DE0FF",
"A 	c #706FA4",
"B 	c #D0CFD9",
"C 	c #A7CCE8",
"D 	c #77D4FF",
"E 	c #79D6FF",
"F 	c #6F83BF",
"G 	c #B3C7E3",
"H 	c #69CDFF",
"I 	c #81D9FF",
"J 	c #6685C7",
"K 	c #9A9ABF",
"L 	c #AEAECC",
"M 	c #51C1FF",
"N 	c #61C9FF",
"O 	c #5B95E3",
"P 	c #867B96",
"Q 	c #55AFEE",
"R 	c #4ABEFF",
"S 	c #4EB7F9",
"T 	c #6A89D8",
"U 	c #756989",
"V 	c #C3C2DB",
"W 	c #5EA7E8",
"X 	c #32B2FF",
"Y 	c #37B1FE",
"Z 	c #39B5FF",
"[ 	c #70BCF4",
"] 	c #89A8E0",
"^ 	c #7D79B6",
"_ 	c #63598C",
"` 	c #817592",
"a 	c #66A4E6",
"b 	c #7EC2F6",
"c 	c #A5AEDE",
"d 	c #6D6DBB",
"e 	c #4545A2",
"f 	c #645981",
"g 	c #D3D3E0",
"h 	c #8F98CF",
"i 	c #B4B4DC",
"j 	c #A5A5D1",
"k 	c #9797C9",
"l 	c #454599",
"m 	c #6B679D",
"n 	c #E9E9E9",
"o 	c #E1E1EF",
"p 	c #F2F2F2",
"q 	c #E1E1E2",
"r 	c #B4B4D5",
"s 	c #6464A5",
"t 	c #505099",
"u 	c #8282B5",
"v 	c #928EB6",
"w 	c #8F8FBD",
"x 	c #5A5A99",
"y 	c #8986B3",
"z 	c #B4B4C9",
"{ 	c #D6D6DB",
"| 	c #6D6DA1",
"} 	c #6C638C",
"~ 	c #9B97B0",
" !	c #B0AFC4",
"!!	c #ADADC7",
"#!	c #8480A7",
"$!	c #695F85",
"%!	c #796D8C",
"&!	c #6B5D7F",
"'!	c #5D4E74",
"(!	c #635579",
"              # $ % &           ",
"    ' ' ( ) * + , - . 0         ",
"    1 2 3 4 5 6 7 8 9 :         ",
"    1 ; < = 8 > 8 ? @ A         ",
"    B C D @ 9 = 9 @ E F )       ",
"      G H D I I I E H J K       ",
"      L M N H H H N M O P       ",
"      % Q R M M M R S T U       ",
"      V W X Y Z [ ] ^ _ `       ",
"        a Y b c d e f           ",
"      g h i j k l l m           ",
"      n o p q r s t u v         ",
"    g n p n # ) w x u y z       ",
"      1 q # { % + | w } z       ",
"        ~  !z !!K #!$!%!        ",
"            &!'!'!(!            "};
