/* XPM */ 
static char * files_xpm[] = {
"16 16 83 1",
" 	c None",
"!	c black",
"#	c #015A93",
"$	c #015287",
"%	c #014A7B",
"&	c #1A85A5",
"'	c #16BAE8",
"(	c #3BC2B9",
")	c #57C18A",
"*	c #309368",
"+	c #01426F",
",	c #2E9295",
"-	c #00E7FF",
".	c #01C8EB",
"0	c #2BC1D8",
"1	c #5CD68C",
"2	c #3FCA3C",
"3	c #16876E",
"4	c #014675",
"5	c #5BD2DA",
"6	c #A5F7FF",
"7	c #6EEDC1",
"8	c #31EF63",
"9	c #29B561",
":	c #17967C",
";	c #623414",
"<	c #632F00",
"=	c #6B3900",
">	c #003963",
"?	c #02B0E8",
"@	c #65F4C2",
"A	c #18AAA5",
"B	c #0075DB",
"C	c #3A3F42",
"D	c #A37449",
"E	c #C78E53",
"F	c #423223",
"G	c #0A4941",
"H	c #0C828D",
"I	c #0394D1",
"J	c #069FBA",
"K	c #088E84",
"L	c #036E9F",
"M	c #014DA3",
"N	c #4E4137",
"O	c #E2B27D",
"P	c #BE854B",
"Q	c #A66E36",
"R	c #844F17",
"S	c #EDC293",
"T	c #CD955B",
"U	c #DEAD73",
"V	c #F5C189",
"W	c #F8D4AE",
"X	c #FCECDA",
"Y	c #F7D0A6",
"Z	c #F6C998",
"[	c #EABB86",
"]	c #CD8B47",
"^	c #9D662F",
"_	c #D39755",
"`	c #9C652F",
"a	c #5C2500",
"b	c #A9713A",
"c	c #88521C",
"d	c #8E5722",
"e	c #E2A86A",
"f	c #ECB57A",
"g	c #D49B5E",
"h	c #AA723B",
"i	c #9A622C",
"j	c #975E29",
"k	c #EBB479",
"l	c #F0BB81",
"m	c #E7AE72",
"n	c #AB733C",
"o	c #87501F",
"p	c #F4E1C5",
"q	c #EFC18E",
"r	c #AD753E",
"s	c #8D5423",
"t	c #F4D1A7",
"u	c #9B6230",
"                ",
"      ##$%%     ",
"     #&'()*+    ",
"    #,-.01234   ",
"    #56-789:+;< ",
"   =>?-@8AB#CDE<",
"  =FGHIJKLMNDOP<",
" =QQQQQQQQRDST< ",
"=UVWXYZ[U]=^_=  ",
"==========`==a  ",
"  =EEEEEEEbcda  ",
"  =efeeeeghija  ",
"  =klkmeegnioa  ",
"  =Vpqkmegrsa   ",
"  =Vtlkkegua    ",
"  ========a     "};
