/* XPM */ 
static char * general_xpm[] = {
"16 16 69 1",
" 	c None",
"!	c black",
"#	c #9C5200",
"$	c #8C4A00",
"%	c #FFA308",
"&	c #D38101",
"'	c #FFA80D",
"(	c #FFB029",
")	c #733900",
"*	c #F19807",
"+	c #B96E04",
",	c #FFC258",
"-	c #FFC054",
".	c #E6991F",
"0	c #C57D14",
"1	c #FFC867",
"2	c #FFD387",
"3	c #FFBD4A",
"4	c #FFB639",
"5	c #BC5D00",
"6	c #DE8400",
"7	c #F88C00",
"8	c #C36200",
"9	c #B57414",
":	c #FF8E00",
";	c #FDAD2A",
"<	c #944E00",
"=	c #7B4200",
">	c #B26000",
"?	c #994300",
"@	c #6B3900",
"A	c #F69C08",
"B	c #733300",
"C	c #CE7000",
"D	c #FFD181",
"E	c #8C5200",
"F	c #CE7B03",
"G	c #FFE4B6",
"H	c #FFCF7B",
"I	c #C58725",
"J	c #C66D00",
"K	c #FFBC48",
"L	c white",
"M	c #DA9C38",
"N	c #DA921F",
"O	c #EF8800",
"P	c #FC8B00",
"Q	c #FEBA4E",
"R	c #FFD793",
"S	c #FFCF7D",
"T	c #FFBF50",
"U	c #8E3A00",
"V	c #B55A00",
"W	c #F37900",
"X	c #DD6E00",
"Y	c #CD801C",
"Z	c #FFD284",
"[	c #FFC767",
"]	c #F09F25",
"^	c #FDA425",
"_	c #FEAE33",
"`	c #FEB944",
"a	c #F97F00",
"b	c #EB8912",
"c	c #DA7400",
"d	c #FF8400",
"e	c #C97E12",
"f	c #8E4600",
"g	c #BE5500",
"                ",
"    ### ##$     ",
"   #%%%#&%'$    ",
"   #((%%%%%$))  ",
" ###(((((%%*+%) ",
"#,-((.##$$0%%%&)",
"#1234#5678$9%%%)",
"#:;,3<$$=>?@(AB ",
" #CD,E   =?@((F)",
" ##GHI@   =@((()",
"#JKLG1M@@@@N((()",
"#OPQ14RS11TTTUV ",
" #WX$YRGRZZ[T]) ",
"  #$ $^_`aC_bc) ",
"     $dPef)ag)  ",
"     $)))) ))   "};
