/* XPM */ 
static char * notifications_xpm[] = {
"16 16 43 1",
" 	c None",
"!	c black",
"#	c #9E0B0E",
"$	c white",
"%	c #F8A690",
"&	c #790000",
"'	c #FBCBBC",
"(	c #F5896F",
")	c #D4D0C8",
"*	c #F69679",
"+	c #F3705A",
",	c #8A8884",
"-	c #404040",
".	c #F48164",
"0	c #F04D3F",
"1	c #335D76",
"2	c #F05844",
"3	c #ED1C24",
"4	c #117EC1",
"5	c #EF4439",
"6	c #335E79",
"7	c #1181C5",
"8	c #34607A",
"9	c #1285CA",
":	c #89C2E5",
";	c #C4E1F2",
"<	c #34617C",
"=	c #1386CE",
">	c #356481",
"?	c #138DD9",
"@	c #89C6EC",
"A	c #C5E3F6",
"B	c #F47B5F",
"C	c #366886",
"D	c #1494E4",
"E	c #F58970",
"F	c #3B6C8A",
"G	c #1F9EEB",
"H	c #1D9DEB",
"I	c #406F8B",
"J	c #2AA3EC",
"K	c #27A1EC",
"L	c #414141",
"          ##    ",
"         #$%&   ",
"         #'(&   ",
")))))))))#*+&)),",
")--------#.0&-)-",
")-1111111#23&1)-",
")-1444444#53&4)-",
")-67777777&&77)-",
")-89:;;::99999)-",
")-<=======##==)-",
")->?@A@??#'B&?)-",
")-CDDDDDD#E3&D)-",
")-FGGGGGHH&&HH)-",
")-IJJJJJKKKKKK)-",
")))))))))))))))-",
",---------L-----"};
