/* XPM */ 
static char * proxy_xpm[] = {
"16 16 54 1",
" 	c None",
"!	c black",
"#	c #358825",
"$	c #338224",
"%	c #2F7421",
"&	c #265C1C",
"'	c #45AF32",
"(	c #6AC259",
")	c #7BCA6B",
"*	c #86CF77",
"+	c #5CBB4B",
",	c #3B9D2A",
"-	c #CAEBC2",
".	c #77C868",
"0	c #368A26",
"1	c white",
"2	c #D4EFCF",
"3	c #5C5C5C",
"4	c #1E4716",
"5	c #686868",
"6	c #9ED992",
"7	c #B5B5B5",
"8	c #DCDCDC",
"9	c #E8F7E5",
":	c #338525",
";	c #E9F7E7",
"<	c #D2EECB",
"=	c #EEEEEE",
">	c #BFE7B6",
"?	c #D4EFCE",
"@	c #979797",
"A	c #9E9E9E",
"B	c #AEAEAE",
"C	c #BABABA",
"D	c #B1B1B1",
"E	c #B5E3AB",
"F	c #AFE0A3",
"G	c #858585",
"H	c #3D3D3D",
"I	c #AFE0A5",
"J	c #1C3F14",
"K	c #50A840",
"L	c #CDECC6",
"M	c #ABDFA0",
"N	c #409A30",
"O	c #D6F0D1",
"P	c #3B9C2A",
"Q	c #2E7321",
"R	c #9CD88F",
"S	c #378F27",
"T	c #C6EABF",
"U	c #43AD31",
"V	c #A4DC98",
"W	c #8ED380",
"      ##$$%%&&  ",
"     #'''''''&  ",
"    #((((((('&  ",
"   #)******+,&  ",
"   #------.'0&  ",
"   #-112--.034  ",
"  5#-1612-.07555",
"558$-9:6;<.0781=",
"=18$>?&:62.0@ABC",
"DA7$E>&&:F.0GHHH",
"HHA%IEJJKL.0H4  ",
"  H%MMJNOM.PQ4  ",
"   %RRSTMR.U04  ",
"   &RRMVRR.U4   ",
"   &WWWWWW(4    ",
"   &&&44444     "};
