/* XPM */ 
static char * security_xpm[] = {
"16 16 76 1",
" 	c None",
"!	c black",
"#	c #CCCCCC",
"$	c #DFDFDF",
"%	c #DADADA",
"&	c #B3B3B4",
"'	c #A3A6A6",
"(	c #A1A1A1",
")	c #BDBDBD",
"*	c #D3D3D3",
"+	c #8F8F8F",
",	c #AEAEAE",
"-	c #C2C2C2",
".	c #929292",
"0	c #ABABAB",
"1	c #B8BDC0",
"2	c #AFB1B2",
"3	c #B2B7BB",
"4	c #D4B7A1",
"5	c #C4B0A7",
"6	c #B99C8E",
"7	c #C3AC97",
"8	c #C9B5A1",
"9	c #D2B096",
":	c #D1C4A9",
";	c #FFDBA1",
"<	c #EEA872",
"=	c #F4BA82",
">	c #F5C992",
"?	c #FEE3AB",
"@	c #FFE9AE",
"A	c #FFDEA4",
"B	c #FFDD90",
"C	c #DDBF8E",
"D	c #D4C9A8",
"E	c #FFC26F",
"F	c #E88330",
"G	c #EB9842",
"H	c #EEAD54",
"I	c #F5BD69",
"J	c #F7C66F",
"K	c #FBD27D",
"L	c #FFD789",
"M	c #FED685",
"N	c #E0C08D",
"O	c #D2C5A4",
"P	c #FFC574",
"Q	c #E78738",
"R	c #EA9B49",
"S	c #EEAE5A",
"T	c #F2BA66",
"U	c #F7C674",
"V	c #FAD280",
"W	c #FEE192",
"X	c #ED8B3A",
"Y	c #F3B45E",
"Z	c #F9C978",
"[	c #FFCE75",
"]	c #E88738",
"^	c #FEDE8D",
"_	c #FFC86F",
"`	c #D2C8A7",
"a	c #F0A04C",
"b	c #E2C591",
"c	c #BCAD94",
"d	c #E7A263",
"e	c #C9682F",
"f	c #CD7238",
"g	c #D07B3D",
"h	c #D78442",
"i	c #DE8F47",
"j	c #E49A4C",
"k	c #EBA551",
"l	c #F09C44",
"m	c #FBA74B",
"n	c #C5A676",
"      #$%#      ",
"     %&'()*     ",
"    #+&  &,-    ",
"    -.    0#)   ",
"   -)'    &-1   ",
"   -1'    23)   ",
"   456    789   ",
"  :;<=>>;?@ABC  ",
"  DEFGHIJKLMEN  ",
"  OPQRSTUVWLEN  ",
"  OPXRYIZVWB[N  ",
"  OPXRYIUVWL[N  ",
"  OP]RSI[V^L_N  ",
"  `PXaYIZMWB[b  ",
"  cdefghijklmn  ",
"                "};
