/* XPM */ 
static char * server_xpm[] = {
"16 16 58 1",
" 	c None",
"!	c black",
"#	c #505F6D",
"$	c #4C5A66",
"%	c #414D58",
"&	c #566675",
"'	c #667582",
"(	c #5F6E7A",
")	c #8D99A4",
"*	c #7D8B96",
"+	c #6D7984",
",	c #65717C",
"-	c #586671",
".	c #303941",
"0	c white",
"1	c #CCD4DB",
"2	c #B4BEC6",
"3	c #768593",
"4	c #5A6976",
"5	c #4A5865",
"6	c #3F4B56",
"7	c #E6EAED",
"8	c #C4CCD3",
"9	c #B5BEC8",
":	c #A1ADB9",
";	c #7E8D9A",
"<	c #76828F",
"=	c #45525D",
">	c #F3F5F6",
"?	c #A1ACB6",
"@	c #4E5D6A",
"A	c #D4DBE1",
"B	c #E0E4E9",
"C	c #ABB5BD",
"D	c #D0D6DC",
"E	c #4C9260",
"F	c #15C61D",
"G	c #AFE4B9",
"H	c #D9DFE4",
"I	c #3A454E",
"J	c #9EA8B2",
"K	c #3FA751",
"L	c #41FF41",
"M	c #94CCA5",
"N	c #2D353D",
"O	c #419257",
"P	c #308F41",
"Q	c #6AAF7E",
"R	c #726969",
"S	c #CA4F55",
"T	c #BC9FAA",
"U	c #BBC4CC",
"V	c #7E5863",
"W	c #FF000A",
"X	c #97828E",
"Y	c #8A545D",
"Z	c #906C77",
"[	c #404C57",
"     ##$$%%%    ",
"  &&&''(((&#%%% ",
" &)*+++''',(-$. ",
" &012)3+++'456. ",
" #0789:*,;<$=6. ",
" #>789:*4?<$=6. ",
" #>889:*@A;$=6. ",
" #7$BC:*$A<$=6. ",
" $728%DEFG+$=6. ",
" $HIHJ:KLM+$=6. ",
" $H28N8OPQ+$=6. ",
" $HNAJ:RST,$=6. ",
" $C18NUVWX,$=I. ",
" $$+)::RYZ,$[.  ",
"   %%%,<$3,=.   ",
"      %%%%%.    "};
