/* XPM */ 
static char * webinterface_xpm[] = {
"16 16 153 2",
"  	c None",
"! 	c black",
"# 	c #004384",
"$ 	c #003D84",
"% 	c #065FA3",
"& 	c #0EA4FF",
"' 	c #7DD1BF",
"( 	c #3CBE7B",
") 	c #109DE6",
"* 	c #045A99",
"+ 	c #00326F",
", 	c #003671",
"- 	c #2E7F63",
". 	c #68E57B",
"0 	c #0094C5",
"1 	c #02B6FF",
"2 	c #4BCDAF",
"3 	c #11AE9C",
"4 	c #6CDED8",
"5 	c #94F080",
"6 	c #51C867",
"7 	c #196952",
"8 	c #3D746A",
"9 	c #F2FFDD",
": 	c #14D2AF",
"; 	c #00A1DE",
"< 	c #0DD0F3",
"= 	c #58D661",
"> 	c #0075CB",
"? 	c #85E0D9",
"@ 	c #42D335",
"A 	c #32C635",
"B 	c #35B04F",
"C 	c #02467F",
"D 	c #003970",
"E 	c #B1FFA2",
"F 	c #1CCF87",
"G 	c #00A4D2",
"H 	c #00D3FC",
"I 	c #00DBF2",
"J 	c #008EBA",
"K 	c #1797D5",
"L 	c #EAFFE2",
"M 	c #39D73F",
"N 	c #2FAB53",
"O 	c #0775BE",
"P 	c #00396D",
"Q 	c #006490",
"R 	c #3CDA85",
"S 	c #009FD8",
"T 	c #5AECFF",
"U 	c #00C4FF",
"V 	c #28C1FF",
"W 	c #65EA89",
"X 	c #27B04F",
"Y 	c #2DBA4A",
"Z 	c #3FBD22",
"[ 	c #178695",
"] 	c #024982",
"^ 	c #002C55",
"_ 	c #008C9D",
"` 	c #009EC4",
"a 	c #00ACDB",
"b 	c #10E2FF",
"c 	c #09DFFF",
"d 	c #FFFFE1",
"e 	c #96FF90",
"f 	c #46DA5C",
"g 	c #056BB3",
"h 	c #239B77",
"i 	c #34AA42",
"j 	c #37A5E2",
"k 	c #22CDFF",
"l 	c #0FE1FD",
"m 	c #0DD9F7",
"n 	c #7BFF5D",
"o 	c #27EE22",
"p 	c #189664",
"q 	c #007CE4",
"r 	c #008CFF",
"s 	c #006CE4",
"t 	c #209486",
"u 	c #1C7966",
"v 	c #78BAC9",
"w 	c #79E483",
"x 	c #07B1CB",
"y 	c #00BAFC",
"z 	c #0CC2B3",
"{ 	c #09945E",
"| 	c #006FC2",
"} 	c #009AFF",
"~ 	c #0093FF",
" !	c #0084FF",
"!!	c #005CC2",
"#!	c #025797",
"$!	c #5BA9C3",
"%!	c #78EA47",
"&!	c #1CBD4F",
"'!	c #0CB3AF",
"(!	c #00AFFF",
")!	c #00A6FF",
"*!	c #1693E4",
"+!	c #13ACFF",
",!	c #0078EE",
"-!	c #0069CE",
".!	c #0267BC",
"0!	c #003156",
"1!	c #2B628A",
"2!	c #67E74F",
"3!	c #66DA3E",
"4!	c #11979D",
"5!	c #0084DC",
"6!	c #9EE2F8",
"7!	c #F5FFD0",
"8!	c #55D149",
"9!	c #2BACB3",
":!	c #1790EB",
";!	c #0067E9",
"<!	c #00487F",
"=!	c #50C656",
">!	c #43B95F",
"?!	c #138D97",
"@!	c #008CF0",
"A!	c #79D4CD",
"B!	c #B7EC82",
"C!	c #28BA37",
"D!	c #24B12E",
"E!	c #50C41F",
"F!	c #3DA34A",
"G!	c #0061C3",
"H!	c #00304C",
"I!	c #247456",
"J!	c #2EA088",
"K!	c #1FA1F0",
"L!	c #4FC432",
"M!	c #28B128",
"N!	c #36B234",
"O!	c #31A438",
"P!	c #207C60",
"Q!	c #0364B3",
"R!	c #024E88",
"S!	c #115661",
"T!	c #0077EB",
"U!	c #007EFF",
"V!	c #3BA67E",
"W!	c #319D38",
"X!	c #329B49",
"Y!	c #207B6E",
"Z!	c #025BAF",
"[!	c #003965",
"]!	c #0059BB",
"^!	c #095D8F",
"_!	c #034477",
"          # # # # # #           ",
"      # $ % & ' ( ) * + ,       ",
"    # - . 0 1 2 3 4 5 6 7 ,     ",
"  # 8 9 : ; < = > ? @ A B C D   ",
"  $ E F G H I J K L M A N O P   ",
"# Q R S < T H U V W X Y Z [ ] ^ ",
"# _ ` a b T c d e f g > h i g ^ ",
"# j k U H l m n o p q r s t u ^ ",
"# v w x y y y z { | } ~  !!!#!^ ",
"# $!%!&!'!(!)!)!*!+!r  !,!-!.!0!",
"# 1!2!3!4!5!)!6!7!8!9!:!;!.!<!^ ",
"  + =!>!?!@!A!B!C!D!E!F!.!G!H!  ",
"  , I!J!q r K!L!M!N!O!P!Q!R!^   ",
"    + S!T!U! !V!W!X!Y!Z!C ^     ",
"      P [!# G!]!^!* _!^ ^       ",
"          ^ H!^ ^ 0!^           "};
