/* XPM */ 
static char * kadbootstrap_xpm[] = {
"16 16 75 1",
" 	c None",
"!	c black",
"#	c #4C4C4C",
"$	c #D3DCE7",
"%	c #E4E6ED",
"&	c #D2D5E3",
"'	c #E9E9F0",
"(	c #DCE6ED",
")	c #B5C6DB",
"*	c #BBC3DB",
"+	c #AAAECF",
",	c #B8BDD6",
"-	c #C9CDDF",
".	c #B0B5CC",
"0	c #7385AC",
"1	c #A7C3DB",
"2	c #A5BFDB",
"3	c #B7CBDB",
"4	c #7B88BC",
"5	c #7685B8",
"6	c #818CBC",
"7	c #B9CCE0",
"8	c #6B88B1",
"9	c #5869A5",
":	c #677EB7",
";	c #617DB7",
"<	c #8CA3CB",
"=	c #546BAF",
">	c #5869AB",
"?	c #5F74AA",
"@	c #ACCAE1",
"A	c #B8D7ED",
"B	c #A7C8DA",
"C	c #6D87BA",
"D	c #435CA7",
"E	c #6D90C2",
"F	c #5C86C2",
"G	c #5F9DCA",
"H	c #8DD8EB",
"I	c #A8D3E8",
"J	c #436294",
"K	c #8BB7D5",
"L	c #B8E1EF",
"M	c #5D94CA",
"N	c #6385BF",
"O	c #72A9D4",
"P	c #93DBEC",
"Q	c #DBF5FA",
"R	c #B28500",
"S	c #5A83BE",
"T	c #C0EEF7",
"U	c #D9FBFD",
"V	c #A0D5EC",
"W	c #8AD0E7",
"X	c #CDF4F9",
"Y	c #ECFDFE",
"Z	c #FFDF7F",
"[	c #FED24C",
"]	c #5682BD",
"^	c #9EE0EF",
"_	c #BBEDF7",
"`	c #86CCE6",
"a	c #AAE3F2",
"b	c #4A76BF",
"c	c #9BCDEA",
"d	c #FFFF00",
"e	c #7AAFDB",
"f	c #8EC1E1",
"g	c #5C95D0",
"h	c #6DA7D8",
"i	c #93C8E6",
"j	c #C9EEF8",
"k	c #7DBAE1",
"l	c #87C9EE",
"m	c #D8EFFA",
"     #####      ",
"   ##$%&&'##    ",
"  #($)*+&,-.#   ",
" #01234556578#  ",
" #9:;<==>?;@A#  ",
"#BCD=EFGHHHHIJ# ",
"#KLMNOPQRRRRRI# ",
"#STUVWXYRZ[[RI# ",
"#]^_`aWURZZ[RI# ",
"#bMcWRRRRdZ[RRRR",
" #MefVRddddZ[[R ",
" #ghiVjRdddZ[R  ",
"  #kkklmRddZR   ",
"   ##kkk RdR    ",
"     #### R     ",
"                "};
