/* XPM */ 
static char * contacts_xpm[] = {
"16 16 107 2",
"  	c None",
"! 	c #566675",
"# 	c #4C5D6C",
"$ 	c #434F5B",
"% 	c #39444E",
"& 	c #303941",
"' 	c black",
"( 	c #ACC3D9",
") 	c #A4BCD3",
"* 	c #9EB7D1",
"+ 	c #96B3CF",
", 	c #F5F8FA",
"- 	c #C8D7E5",
". 	c #B5C9DC",
"0 	c #ACC2D7",
"1 	c #D5E0EB",
"2 	c #41FF41",
"3 	c #CFFFCF",
"4 	c #5BE34C",
"5 	c #73879B",
"6 	c #9BB4CC",
"7 	c #8FACC8",
"8 	c #8DAAC6",
"9 	c #ABBFD3",
": 	c #C6D4E2",
"; 	c #5DE35D",
"< 	c #67D966",
"= 	c #6A7E92",
"> 	c #DCE4EC",
"? 	c #8EA3B6",
"@ 	c #B6C5D3",
"A 	c #57697B",
"B 	c #626BA0",
"C 	c #5886BF",
"D 	c #688EBF",
"E 	c #7896BF",
"F 	c #819ABF",
"G 	c #6572A5",
"H 	c #F5F7FA",
"I 	c #C2D1DF",
"J 	c #5873AC",
"K 	c #3FBBFF",
"L 	c #6ED1FF",
"M 	c #98E6FF",
"N 	c #AEF0FF",
"O 	c #91E2FF",
"P 	c #7FC4F2",
"Q 	c #6E7DB1",
"R 	c #A4B8CB",
"S 	c #FFFF00",
"T 	c #FFFFBF",
"U 	c #D3DD46",
"V 	c #35B6FF",
"W 	c #5DC9FF",
"X 	c #81DBFF",
"Y 	c #7FDAFF",
"Z 	c #83B5E5",
"[ 	c #7676A8",
"] 	c #BECDDB",
"^ 	c #C1CF5D",
"_ 	c #5D7185",
"` 	c #22ADFF",
"a 	c #50C3FF",
"b 	c #59C7FE",
"c 	c #6EABE4",
"d 	c #9BB2C6",
"e 	c #435262",
"f 	c #1BAAFF",
"g 	c #28B0FF",
"h 	c #59A1E4",
"i 	c #92ABC3",
"j 	c #E8EDF2",
"k 	c #32A6F5",
"l 	c #799DD7",
"m 	c #D4DDE5",
"n 	c #FF7C7C",
"o 	c #FFDEDE",
"p 	c #C33F4C",
"q 	c #5E7AB3",
"r 	c #6B6B9E",
"s 	c #7E98AF",
"t 	c #AFBFCD",
"u 	c #AF5465",
"v 	c #4E6174",
"w 	c #7C99B5",
"x 	c #8585B5",
"y 	c #807FAE",
"z 	c #6F6EC6",
"{ 	c #7276BA",
"| 	c #9A9AAC",
"} 	c #748CA3",
"~ 	c #323E4A",
" !	c #526C8A",
"!!	c #9B9BB1",
"#!	c #8A8ABB",
"$!	c #6A849C",
"%!	c #607C97",
"&!	c #5D7995",
"'!	c #5A7692",
"(!	c #57738F",
")!	c #506984",
"*!	c #A5A5D5",
"+!	c #9C9CCD",
",!	c #8B8BA3",
"-!	c #9292C5",
".!	c #7978B9",
"0!	c #7F7FB1",
"! ! ! ! ! # # # # $ $ $ % &     ",
"! ( ( ( ( ( ) ) ) ) ) * + &     ",
"! ( , - . . . ( ) * + + + &     ",
"! 0 1 2 3 4 5 0 ) 6 + 7 8 &     ",
"! 9 : ; ; < = 0 > > > > > ?     ",
"! ) @ # # # A > B C D E F E D G ",
"! ) H I 0 9 9 > J K L M N O P Q ",
"# R > S T U = > J V W X O Y Z [ ",
"# R ] U U ^ _ > J ` K a b a c [ ",
"# d R e e e e > J f f g g g h [ ",
"# i j @ d d i > J k h h h h l [ ",
"$ ? m n o p _ > B q [ [ [ [ [ r ",
"$ s t p p u v w > > x y z { |   ",
"$ } ? ~ ~ ~ ~  !% > !!#!z y     ",
"% $!%!&!'!(!)!e > | *!+!z x ,!  ",
"& & & & & & & & ? | -!-!.!0!,!,!"};
