/* XPM */ 
static char * currentsearches_xpm[] = {
"16 16 102 2",
"  	c None",
"! 	c black",
"# 	c #CCCCCC",
"$ 	c #FFFF00",
"% 	c #FFFFBF",
"& 	c #D3DD46",
"' 	c #7F87A0",
"( 	c #6A7596",
") 	c #657194",
"* 	c #6E7898",
"+ 	c #82889C",
", 	c #7B84A2",
"- 	c #8290B6",
". 	c #BBC9EC",
"0 	c #CFDEFE",
"1 	c #B7C6E9",
"2 	c #818FB5",
"3 	c #7D859E",
"4 	c #8F95AC",
"5 	c #808FB6",
"6 	c #C9DBFC",
"7 	c #D2E2FE",
"8 	c #D3E3FE",
"9 	c #D2E3FE",
": 	c #C4D8FD",
"; 	c #7686B0",
"< 	c #9398A6",
"= 	c #6C7799",
"> 	c #ACC1ED",
"? 	c #C6DBFE",
"@ 	c #C9DBFE",
"A 	c #C1D6FD",
"B 	c #A5C5FD",
"C 	c #99BDFD",
"D 	c #7EA0EA",
"E 	c #636E91",
"F 	c #41FF41",
"G 	c #CFFFCF",
"H 	c #5BE34C",
"I 	c #5F6D94",
"J 	c #AEC8FD",
"K 	c #BFD5FD",
"L 	c #A6C5FB",
"M 	c #99BCFB",
"N 	c #93B9FC",
"O 	c #87ADFC",
"P 	c #57658B",
"Q 	c #5DE35D",
"R 	c #5D6B95",
"S 	c #8EABE8",
"T 	c #ABC9FD",
"U 	c #B1CDFE",
"V 	c #B2CCFD",
"W 	c #B0CBFD",
"X 	c #91B1F5",
"Y 	c #59668B",
"Z 	c #646F90",
"[ 	c #7386B5",
"] 	c #ACC8FD",
"^ 	c #C1D7FE",
"_ 	c #C8DCFD",
"` 	c #C2D8FE",
"a 	c #ACC8FC",
"b 	c #7D91C6",
"c 	c #727C99",
"d 	c #AAB0C2",
"e 	c #647091",
"f 	c #7484B0",
"g 	c #AEC1EB",
"h 	c #C6D8FD",
"i 	c #AABCE7",
"j 	c #7383AE",
"k 	c #727B9A",
"l 	c #9FA5BB",
"m 	c #A38876",
"n 	c #FF7C7C",
"o 	c #FFDEDE",
"p 	c #C33F4C",
"q 	c #737EA0",
"r 	c #606B8D",
"s 	c #677395",
"t 	c #7E86A4",
"u 	c #9AA1B8",
"v 	c #B6957A",
"w 	c #D9BB9B",
"x 	c #9D795A",
"y 	c #CBCAC8",
"z 	c #B20000",
"{ 	c #9299AE",
"| 	c #776B6F",
"} 	c #B58453",
"~ 	c #D3AF89",
" !	c #D7B99B",
"!!	c #B3A192",
"#!	c #956F4C",
"$!	c #BC8C5B",
"%!	c #D7B38E",
"&!	c #CDA884",
"'!	c #C6C2BF",
"(!	c #8F6643",
")!	c #B78757",
"*!	c #A37B58",
"                        # # #   ",
"                      # $ % & # ",
"    ' ( ) * +         # $ & & # ",
"  , - . 0 1 2 3       # & & & # ",
"4 5 6 7 8 9 : ; <       # # #   ",
"= > ? @ A B C D E     # F G H # ",
"I J K K L M N O P     # F Q Q # ",
"R S T U V W B X Y     # Q Q Q # ",
"Z [ ] ^ _ ` a b c d     # # #   ",
"  e f g h i j k l m   # n o p # ",
"      q r s t u v w x y n p z # ",
"            { | } ~  !!!z z z # ",
"                #!$!%!&!'!# #   ",
"                  (!)!*!        ",
"                                ",
"                                "};
