/* XPM */ 
static char * connect_xpm[] = {
"32 32 113 2",
"  	c None",
"! 	c black",
"# 	c #8E7200",
"$ 	c #907400",
"% 	c #8B7000",
"& 	c #876D00",
"' 	c #826900",
"( 	c #7C6400",
") 	c #9E7F00",
"* 	c #9A7D00",
"+ 	c #977A00",
", 	c #BD9700",
"- 	c #C9A000",
". 	c #CC9C00",
"0 	c #A48000",
"1 	c #A58500",
"2 	c #D2A600",
"3 	c #D0A300",
"4 	c #755F00",
"5 	c #D5AA00",
"6 	c #6E5900",
"7 	c #DBB300",
"8 	c #E1BC00",
"9 	c #D8AD00",
": 	c #DFB600",
"; 	c #EFCB00",
"< 	c #F8D800",
"= 	c #FBDD00",
"> 	c #B49B00",
"? 	c #C3A000",
"@ 	c #DBB100",
"A 	c #E2B900",
"B 	c #F4D939",
"C 	c #FDEE81",
"D 	c #FDF4AE",
"E 	c #FDF197",
"F 	c #FDEA60",
"G 	c #D2AE00",
"H 	c #EBC800",
"I 	c #F7E465",
"J 	c #FEF7BE",
"K 	c #FFFCE4",
"L 	c #FDF6C5",
"M 	c #FDF3AF",
"N 	c #FDF08F",
"O 	c #FDEE82",
"P 	c #D9B500",
"Q 	c #F7D906",
"R 	c #FFFEF4",
"S 	c #FEF7C6",
"T 	c #FEF5B4",
"U 	c #FEF298",
"V 	c #FEEF82",
"W 	c #DDB800",
"X 	c #FCEA6C",
"Y 	c #FEF5B3",
"Z 	c #FEF3A3",
"[ 	c #FEF6BE",
"] 	c #FEF192",
"^ 	c #FEED71",
"_ 	c #FCE430",
"` 	c #C6AC00",
"a 	c #F7D803",
"b 	c #FDE748",
"c 	c #D3B800",
"d 	c #FCE965",
"e 	c #FDE954",
"f 	c #E8CE18",
"g 	c #917500",
"h 	c #FDF199",
"i 	c #FEF191",
"j 	c #FEEE7A",
"k 	c #FEEC69",
"l 	c #F5DE38",
"m 	c #A38300",
"n 	c #B59200",
"o 	c #BB9900",
"p 	c #D5B100",
"q 	c #F7D700",
"r 	c #927C12",
"s 	c #FCE220",
"t 	c #FDEF8B",
"u 	c #DFC71D",
"v 	c #EAC600",
"w 	c #FDED72",
"x 	c #EFD30D",
"y 	c #F3D100",
"z 	c #C6AE0C",
"{ 	c #D8C018",
"| 	c #887306",
"} 	c #BB9E12",
"~ 	c #FDEE80",
" !	c #F5D500",
"!!	c #FFFBE0",
"#!	c #FDEE78",
"$!	c white",
"%!	c #977B00",
"&!	c #FEF7C0",
"'!	c #C5AA03",
"(!	c #897000",
")!	c #FDE850",
"*!	c #CDB103",
"+!	c #BB9B00",
",!	c #D5B803",
"-!	c #DDBF02",
".!	c #766000",
"0!	c #B18E00",
"1!	c #E2C302",
"2!	c #7C6500",
"3!	c #C9A800",
"4!	c #E8C701",
"5!	c #836B00",
"6!	c #D2B100",
"                                    # $ % & ' (                 ",
"                          # ) ) * + + , - . . 0 (               ",
"                  1 1 1 1 1 , - 2 2 3 3 3 3 . . 0 4             ",
"                1 , 5 5 5 5 2 2 2 2 2 3 3 3 3 . . 0 6           ",
"                1 7 5 5 5 5 5 2 2 2 2 2 3 3 3 3 . . 0 6         ",
"                1 8 7 5 5 5 5 5 2 2 2 2 9 : ; < = = > 6         ",
"              1 ? 8 8 7 5 5 5 @ A B C D D E E F = > 6           ",
"              1 G 8 8 8 H I J K K L M D N O F = > 6             ",
"              1 P 8 8 8 Q R R S T U V V V F = > 6               ",
"            1 ? W 8 8 8 X R Y Z V V V V F = > 6                 ",
"            1 G W W 8 H [ Y ] V V V ^ F _ ` 6                   ",
"            1 P W W W a [ ] V V V ^ F b c 6                     ",
"          1 ? P P W W d Y V V V ^ F e f 6 g 6                   ",
"          1 G P P W H h i V j k F F l 6 g m n 6                 ",
"        1 o G p P P q Y i ^ F F F F r 6 6 6 6 6                 ",
"        1 ? G G p P s t ^ F F F b b b _ u > 6                   ",
"          1 ? G G v F w F F b b b b b x > 6 g 6                 ",
"            1 ? G y F F b b b b b b = z 6 g m n 6               ",
"              1 ? = b b b b b b b _ { | 6 6 6 6 6 6             ",
"                1 1 1 1 1 1 } ~ _ _ _ _ _ _ =  !> 6             ",
"                    1 P , 1 F !!#!_ _ _ = =  !> 6               ",
"                    1 , 1 F $!#!_ _ = = =  !> 6                 ",
"                      %!= &!#!_ = = = =  !'!6                   ",
"                    (!= ~ )!= = = = =  !*!6                     ",
"                    (!(!(!(!(!+!=  ! !,!6                       ",
"                        (!, (! ! ! !-!.!                        ",
"                        (!0!(! ! !1!2!                          ",
"                          (!3! !4!5!                            ",
"                          (!6!4!(!                              ",
"                          (!6!(!                                ",
"                          (!(!                                  ",
"                          (!                                    "};
