/* XPM */ 
static char * kad_xpm[] = {
"32 32 237 2",
"  	c None",
"! 	c black",
"# 	c #7E7F9B",
"$ 	c #585A7B",
"% 	c #4F5173",
"& 	c #555D88",
"' 	c #ADB2C9",
"( 	c #E4E4EA",
") 	c #EEF1F5",
"* 	c #FEFEFE",
"+ 	c #D5DBE7",
", 	c #9697B3",
"- 	c #434873",
". 	c #3B3C67",
"0 	c #737D8F",
"1 	c #3A4C7C",
"2 	c #A3ACB7",
"3 	c #E7EBF1",
"4 	c #DBE1EB",
"5 	c #29295C",
"6 	c #5D6F89",
"7 	c #487196",
"8 	c #C7D7E4",
"9 	c #E6F3F6",
": 	c #C4C7DA",
"; 	c #9191AD",
"< 	c #93A1B5",
"= 	c #B3C7E0",
"> 	c #B5C5D9",
"? 	c #B3B8D3",
"@ 	c #A8ABCE",
"A 	c #698AA9",
"B 	c #7A97B8",
"C 	c #D9ECF3",
"D 	c #9AB3CE",
"E 	c #9FA4CA",
"F 	c #969BC4",
"G 	c #A9B6D4",
"H 	c #66749C",
"I 	c #90A9C0",
"J 	c #8CA5C0",
"K 	c #B7D6E8",
"L 	c #A4C2DC",
"M 	c #95A1CA",
"N 	c #8794C1",
"O 	c #8490BE",
"P 	c #8289BD",
"Q 	c #7787B8",
"R 	c #8A8A98",
"S 	c #7483A3",
"T 	c #85A5C2",
"U 	c #8BB7DB",
"V 	c #90AAD0",
"W 	c #6977B4",
"X 	c #9AC2DC",
"Y 	c #497AA8",
"Z 	c #8CA9C2",
"[ 	c #6173A8",
"] 	c #5869AB",
"^ 	c #6B8ABC",
"_ 	c #5677B7",
"` 	c #626FAD",
"a 	c #C9E9F4",
"b 	c #DFF3F7",
"c 	c #7BB2CB",
"d 	c #29326E",
"e 	c #48559C",
"f 	c #546CB0",
"g 	c #4764AC",
"h 	c #6293CB",
"i 	c #A8D7E9",
"j 	c #4E82A9",
"k 	c #394985",
"l 	c #537AA7",
"m 	c #3B54A3",
"n 	c #5984BB",
"o 	c #4769B2",
"p 	c #435CA8",
"q 	c #5789C6",
"r 	c #7BB1DC",
"s 	c #CAE3EF",
"t 	c #2B3C87",
"u 	c #D2FCFE",
"v 	c #A8CCE6",
"w 	c #616FB0",
"x 	c #718EC4",
"y 	c #4873B6",
"z 	c #5791C7",
"{ 	c #61A9D3",
"| 	c #66B6DA",
"} 	c #63A5CE",
"~ 	c #6BA4D6",
" !	c #BADFF1",
"!!	c #262F73",
"#!	c #EBFDFE",
"$!	c #F2FEFE",
"%!	c #7C9BCC",
"&!	c #83DCEC",
"'!	c #AEF0F8",
"(!	c #C2EAF6",
")!	c #4878C5",
"*!	c #97B8D7",
"+!	c #2B3C7F",
",!	c #2C4294",
"-!	c #99D7EB",
".!	c #BCE7F4",
"0!	c #85C8E8",
"1!	c #5CA7D3",
"2!	c #86ACD4",
"3!	c #E3FEFE",
"4!	c #D9FDFE",
"5!	c #75D4E9",
"6!	c #334D9D",
"7!	c #3E5898",
"8!	c #649CD1",
"9!	c #A7DCF0",
":!	c #B7F2F8",
";!	c #73B3DD",
"<!	c #7ABBE2",
"=!	c #96C4E4",
">!	c #96E5F2",
"?!	c #CBFAFC",
"@!	c #6AAACC",
"A!	c #E3E4E9",
"B!	c #C2F5FA",
"C!	c #6CCFE8",
"D!	c #A67D63",
"E!	c #724528",
"F!	c #9E7864",
"G!	c #E8E6E2",
"H!	c #BDA492",
"I!	c #B49D90",
"J!	c #B69986",
"K!	c #DACDC6",
"L!	c #CCF1FC",
"M!	c #A8E7F3",
"N!	c #B5EDF6",
"O!	c #A1765C",
"P!	c #B16C33",
"Q!	c #833B08",
"R!	c #D4C3BA",
"S!	c #9F6D4E",
"T!	c #AA6938",
"U!	c #A85C22",
"V!	c #B66727",
"W!	c #A75515",
"X!	c #7C3709",
"Y!	c #527FC1",
"Z!	c #74B5E0",
"[!	c #6EB8E5",
"]!	c #73C9E4",
"^!	c #7ECAE6",
"_!	c #944D17",
"`!	c #C1712E",
"a!	c #874619",
"b!	c #B88050",
"c!	c #D69D65",
"d!	c #E1A365",
"e!	c #C77A37",
"f!	c #8E5026",
"g!	c #8ABDE2",
"h!	c #B4DBF3",
"i!	c #65A2D3",
"j!	c #AD8E7D",
"k!	c #E5BC8C",
"l!	c #EEEAEA",
"m!	c #5D9BD2",
"n!	c #D7904E",
"o!	c #BF7537",
"p!	c #6CAADA",
"q!	c #72ADDB",
"r!	c #845537",
"s!	c #AC6126",
"t!	c #712F06",
"u!	c #AC9182",
"v!	c #96CAF6",
"w!	c #508CD5",
"x!	c #82BCE2",
"y!	c #E0D5CE",
"z!	c #5A1F03",
"{!	c #B99679",
"|!	c #B17442",
"}!	c #773912",
"~!	c #CBBEB7",
" #	c #8ECBE8",
"!#	c #E4E0DA",
"##	c #9D531B",
"$#	c #AF794A",
"%#	c #F2EEE7",
"&#	c #9D8873",
"'#	c #73A4DA",
"(#	c #6BA8E3",
")#	c #C2ECFB",
"*#	c #B7E5F4",
"+#	c #7CC1E4",
",#	c #E0D5D0",
"-#	c #8F644C",
".#	c #D39154",
"0#	c #B7B7B6",
"1#	c #955931",
"2#	c #C37E43",
"3#	c #C4A88C",
"4#	c #BAB3AA",
"5#	c #8C8A89",
"6#	c #7DA4CE",
"7#	c #73B4EA",
"8#	c #8CC2E4",
"9#	c #D6AC80",
":#	c #A5A7A9",
";#	c #EBE8E1",
"<#	c #A09F9B",
"=#	c #67A6DD",
">#	c #6CB4EA",
"?#	c #7ABBEB",
"@#	c #D28A48",
"A#	c #E0BE96",
"B#	c #C06F2A",
"C#	c #73A8D6",
"D#	c #76BCF0",
"E#	c #7AC6F0",
"F#	c #DBA168",
"G#	c #DEAB77",
"H#	c #C8C9C8",
"I#	c #F3F1EE",
"J#	c #6B2F12",
"K#	c #C7B8A6",
"L#	c #956C56",
"M#	c #652704",
"N#	c #A5876D",
"O#	c #B3AFA9",
"P#	c #9A735D",
"Q#	c #59493F",
"R#	c #62605F",
"S#	c #9A9997",
"T#	c #83817D",
"U#	c #BB7843",
"V#	c #C78850",
"                    # # # # # # # # # $                         ",
"                % & ' ( ) * * * * * + , - .                     ",
"            0 1 2 3 ) 4 4 ) 3 ( ( + * * + # 5 $                 ",
"          6 7 8 9 8 : : ( ( : : : : : ( ) + ; 5 .               ",
"        < 7 8 ) 4 8 = > 3 ? @ ? : ) + ? ( + : # 5 .             ",
"      2 A B C ( ( 8 D + = E @ @ ? ( : F F + + G H . %           ",
"    I J H J K + + L L + M N O O P O F P Q O 8 > Q & - R         ",
"    S J H Q T U U V K G W W W W W W Q Q W Q V C X Y 1 -         ",
"  I T Z [ ] [ Q O ^ = Q ] ] [ _ ] ] [ W ` ^ U a b c 7 d #       ",
"  I L D [ e ` W ] _ = _ ] ] f f ] ] g W ] h X : 9 i j 1 -       ",
"I k D a l ] f m m W D g f _ n n _ o p ] g q r = s K Y 1 d I     ",
"I t A u v w m p m x U y z { | | } n y f g o n ~ |  !l k !!I     ",
"I t z #!$!} y o p %!U z | &!'!(!&!| q w o p y )!o *!Q k +!I     ",
"I ,!l -!u .!0!1!y 2!U 1!&!3!* * 4!5!} n _ p p p p ^ D 6!7!I     ",
"I ,!] 8!9!u #!:!;!<!=!| '!* #!#!$!>!| q _ g o p p _ X 7 V I     ",
"I 6!_ z >!$!3!#!'!?!:!5!>!$!#!$!* >!@!A!A!A!o o A!A!A!A!A!I     ",
"I p _ z &!3!#!B!&!B!4!'!'!u #!3!'!C!A!D!E!F!A!A!G!H!H!I!H!J!K!  ",
"I _ _ q | '!L!5!1!<!M!<!-!N!?!?!'!A!O!P!Q!J!R!S!T!U!V!V!W!X!R!  ",
"I Q o Y!q Z!.!Z!z h i h { [!]!^!* R!_!`!a!a!b!c!d!d!e!W!f!R!    ",
"  I )!)!q q g!h!q q h!r h i!i!i!A!j!_!U!a!c!k!c!e!W!f!J!l!      ",
"  I Y!)!h z 8!h!=!z =!v m!i!i!~ A!I!Q!a!n!n!o!_!D!J!l!y I       ",
"    I )!z 8!8!p!a 0!q!.!q!~ ~ A!K!r!X!`!o!s!a!t!u!r v!Q         ",
"    I ^ w!8!~ p!x!a <!9!i ~ q!A!y!z!a!e!V!U!f!{!|!}!~!Z         ",
"      I h m!~ q!;! #a -!(!0!;!A!!#r!##V!V!$#%#* &#_!a!I!# #     ",
"        I '#(#q!Z!Z! #)#(!*#+#A!,#-#V!e!`!.#* 0#! 1#2#3#4#5##   ",
"          I 6#7#x!8#0! #)##!L!A!K!a!e!.#.#e!c!{!r!e!9#:#4#;#<## ",
"            I I =#>#?#x!0!9!#!A!~!a!@#A#A#n!`!B#V!e!{!5#5#!#!## ",
"                I Z C#7#D#E#E#A!j!a!e!F#G#.#e!`!V!T!H!H#I#* I## ",
"                    I I I I I I u!J#U!e!n!.#e!`!U!|!K#,#;#I#I## ",
"                                L#M#}!##V!o!V!s!a!N#~!O#0#;#!## ",
"                                P#X!a!}!}!}!}!E!Q#R#S#S#T#T#5## ",
"                                -#1#U#.#V#T!f!I!  # # # # # #   "};
