/* XPM */ 
static char * options_xpm[] = {
"32 32 259 2",
"  	c None",
"! 	c black",
"# 	c #894900",
"$ 	c #995400",
"% 	c #975400",
"& 	c #955400",
"' 	c #955300",
"( 	c #904F00",
") 	c #8E4E00",
"* 	c #9B5700",
"+ 	c #9A5500",
", 	c #DC9124",
"- 	c #FFC463",
". 	c #F8B546",
"0 	c #915000",
"1 	c #B76C02",
"2 	c #E5910A",
"3 	c #C17304",
"4 	c #8B4D00",
"5 	c #8A4E00",
"6 	c #C47A14",
"7 	c #F4B54F",
"8 	c #FFCB75",
"9 	c #FFBB4A",
": 	c #FFB53C",
"; 	c #EFAE45",
"< 	c #925200",
"= 	c #EC970E",
"> 	c #F79F0F",
"? 	c #F0980C",
"@ 	c #BF7204",
"A 	c #884B00",
"B 	c #F1AF49",
"C 	c #FFC564",
"D 	c #FFC055",
"E 	c #FFB840",
"F 	c #FFB336",
"G 	c #E5A33D",
"H 	c #E1900E",
"I 	c #FAA212",
"J 	c #FAA210",
"K 	c #F69F0D",
"L 	c #874A00",
"M 	c #E29221",
"N 	c #FFBA47",
"O 	c #FFB73F",
"P 	c #FFB538",
"Q 	c #FFB02D",
"R 	c #FFAF28",
"S 	c #C57B0E",
"T 	c #FFAA1F",
"U 	c #FEA91A",
"V 	c #F69D0C",
"W 	c #DF8C0B",
"X 	c #794400",
"Y 	c #FFB53B",
"Z 	c #FFB436",
"[ 	c #FFB231",
"] 	c #FFB027",
"^ 	c #FFAD22",
"_ 	c #FEA919",
"` 	c #FEA815",
"a 	c #FBA10B",
"b 	c #CE8009",
"c 	c #6E3D00",
"d 	c #804700",
"e 	c #9C5500",
"f 	c #995600",
"g 	c #8D4E00",
"h 	c #814800",
"i 	c #E3952B",
"j 	c #FFBB49",
"k 	c #FFB944",
"l 	c #FFB73A",
"m 	c #FFB435",
"n 	c #FFB130",
"o 	c #FFB02B",
"p 	c #FFAC1E",
"q 	c #FFA711",
"r 	c #824800",
"s 	c #B66B02",
"t 	c #D28007",
"u 	c #7F4600",
"v 	c #9C5800",
"w 	c #F6AD3C",
"x 	c #FEC76F",
"y 	c #F2AA3F",
"z 	c #D9871D",
"{ 	c #B96400",
"| 	c #F6B143",
"} 	c #FFBD4D",
"~ 	c #FFB843",
" !	c #F1AB39",
"!!	c #DE9B30",
"#!	c #FEAA1C",
"$!	c #FEA817",
"%!	c #FEA714",
"&!	c #EB970F",
"'!	c #E79107",
"(!	c #F79E09",
")!	c #E18C0A",
"*!	c #7C4500",
"+!	c #FFE6BE",
",!	c #FFD999",
"-!	c #FFD082",
".!	c #FFBF56",
"0!	c #FFBE51",
"1!	c #C98B31",
"2!	c #8F5000",
"3!	c #B1751B",
"4!	c #FFA510",
"5!	c #FBA10E",
"6!	c #7A4400",
"7!	c #D19036",
"8!	c #FFC35E",
"9!	c #FFC15B",
":!	c #AB7326",
";!	c #B36700",
"<!	c #D67C00",
"=!	c #D17900",
">!	c #C97500",
"?!	c #A55F00",
"@!	c #BA7C1F",
"A!	c #FEAB1B",
"B!	c #FEA713",
"C!	c #D78105",
"D!	c #784300",
"E!	c #FFE0AC",
"F!	c #FFC568",
"G!	c #CD7700",
"H!	c #DA7F00",
"I!	c #DD8000",
"J!	c #D97D00",
"K!	c #CB7200",
"L!	c #B56500",
"M!	c #FBA20D",
"N!	c #E78F09",
"O!	c #774200",
"P!	c #FEC770",
"Q!	c #FFC76A",
"R!	c #FFC567",
"S!	c #FFC461",
"T!	c #9F5900",
"U!	c #C87300",
"V!	c #D47800",
"W!	c #FEA716",
"X!	c #CC7400",
"Y!	c #F49D1D",
"Z!	c #FBB648",
"[!	c #FFCD7B",
"]!	c #FFC86F",
"^!	c #844A00",
"_!	c #B36500",
"`!	c #C56D00",
"a!	c #BE6800",
"b!	c #A05700",
"c!	c #B66600",
"d!	c #764100",
"e!	c #C26A00",
"f!	c #FFCD79",
"g!	c #A25800",
"h!	c #B15F00",
"i!	c #A65B00",
"j!	c #E4900C",
"k!	c #B66500",
"l!	c #C46E00",
"m!	c #A85D00",
"n!	c #EC8F0A",
"o!	c #B67B29",
"p!	c #734100",
"q!	c #FCA615",
"r!	c #EE9608",
"s!	c #D88208",
"t!	c #B06200",
"u!	c #754200",
"v!	c #925100",
"w!	c #FFD58F",
"x!	c #FFC86D",
"y!	c #DAA14A",
"z!	c #965300",
"{!	c #6F3E00",
"|!	c #FFAE25",
"}!	c #FFAC21",
"~!	c #B26D0C",
" #	c #FFD89A",
"!#	c #FFD185",
"##	c #FFCA71",
"$#	c #B98131",
"%#	c #975600",
"&#	c #FFB029",
"'#	c #723F00",
"(#	c #C38322",
")#	c #FFD081",
"*#	c #FFF3DF",
"+#	c #FFB132",
",#	c #FDAA1A",
"-#	c white",
".#	c #DEA751",
"0#	c #A7650D",
"1#	c #FCA717",
"2#	c #FFDCA1",
"3#	c #FFBD4E",
"4#	c #FFBF54",
"5#	c #E18E1D",
"6#	c #E69421",
"7#	c #EA9A24",
"8#	c #F4A62B",
"9#	c #FFDBA2",
":#	c #FFE1B0",
";#	c #FDB949",
"<#	c #E1901D",
"=#	c #FFCF7D",
">#	c #FFC15C",
"?#	c #FFC058",
"@#	c #FFBF53",
"A#	c #FFBD50",
"B#	c #B16100",
"C#	c #D77C03",
"D#	c #703F00",
"E#	c #B66800",
"F#	c #F29B19",
"G#	c #F2A52F",
"H#	c #FFD99B",
"I#	c #FFC360",
"J#	c #FFC156",
"K#	c #F4AD43",
"L#	c #BF6D03",
"M#	c #B26100",
"N#	c #FFDFAC",
"O#	c #FFC768",
"P#	c #FFC666",
"Q#	c #FFD389",
"R#	c #E39423",
"S#	c #D07B0B",
"T#	c #FFCD77",
"U#	c #FFCA73",
"V#	c #F2A42D",
"W#	c #FFC970",
"X#	c #FFB63D",
"Y#	c #E49929",
"Z#	c #B46700",
"[#	c #FFE6BC",
"]#	c #FFD897",
"^#	c #DA820B",
"_#	c #EC900E",
"`#	c #FFE5B9",
"a#	c #FABD5B",
"b#	c #D98414",
"c#	c #B46100",
"d#	c #FFE5B7",
"e#	c #E88903",
"f#	c #CC7407",
"g#	c #DB7F02",
"h#	c #CD7300",
"i#	c #AC6300",
"j#	c #9B600D",
"k#	c #C17000",
"l#	c #CF7800",
"m#	c #714000",
"                                                                ",
"                  # $ % & '       ( ) )                         ",
"              * + $ , - . '     0 1 2 3 4 5                     ",
"            * 6 7 8 - 9 : ; <   ( = > > ? @ A A                 ",
"            * B C C D E F F G ( H I J K > > 2 L                 ",
"            * M D D N O P Q R S T U J J J V W X                 ",
"            * + D D E Y Z [ Q ] ^ T _ ` J a b c   d d           ",
"      e * f g h i j k O l m n o ] ^ p _ ` q @ c r s t u         ",
"    v w x y z { | } j ~ O  !!!!!!! !^ #!$!%!&!s '!(!(!)!*!      ",
"    * +!,!-!-!- .!0!} N 1!2!2!) g 5 3!!!#!$!%!4!5!5!(!(!)!6!    ",
"  * 7!+!,!-!- 8!9!D 0!:!2!;!<!=!>!?!2!2!@!A!$!B!B!5!5!(!(!C!D!  ",
"  * ,!E!-!-!F!- 8!9!1!2!;!G!H!I!I!J!K!L!2!@!A!$!B!M!5!5!(!N!O!  ",
"# + P!,!-!-!Q!R!S!8!T!;!U!J!H!I!I!V!K!K!L!h @!U W!q 5!5!? X!O!  ",
"+ I!I!Y!Z![!]!F!R!S!T!) g 5 A ^!h v _!`!a!b!h  !_ ` M!? c!) d!  ",
"f I!I!V!e!Y![!f!Q!C T!          # *!X g!h!i!D!!!p _ j!k!L L #   ",
"$ % l!V!e!m!n!f!]!Q!o!*               p!b!i!D!!!^ #!q!5!r!s!t!u!",
"  # v!' e!m!Y!w!f!x!y!z!                {!b!c !!|!}!#!q!5!(!(!p!",
"        < ~!+! #!#f!##$#%#              c ) c  !&#}!}!q!q!5!(!'#",
"      < (#)#*# #w![!f!##$#r h #         c c @!+#+#+#+#,#q!q!5!'#",
"    < I!Y!!#-#+! #w![!f!##.#:!u *!u!D!c c 0#: Z +#n +#+#+#^ 1#'#",
"  < I!I!I!Y!2#*# # #-![!]!Q!R! !!!!!!!!! !3#4#4#Z 5#6#7#8#8#5!'#",
"  < I!I!I!I!Y!9#:#;#<#=#-!x!Q!C S!>#?#@#3#3#4#4#A#5#b!B#`!C#D#  ",
"  0 E#I!I!I!I!F#<#{ %#G#H#-!f!Q!C I#>#J#4#0!J#4#C K#L#' g!M#D#  ",
"    2!I!I!I!I!K!{ r < <#N#H#-!f!##C O#O#O#O#O#O#P#Q#R#L#D#D#    ",
"      g I!I!K!A A   r S#+!H# #w!T#8 U#4#V#W#Q#Q#Q#Q#X#Y#D#      ",
"        4 Z#A #     ^!S#!#+![#,!]#Q#8 ^#I!_#D `#2#a#b#c#D#      ",
"          A #       r V!n!;#!#[#`#d#Q#{ I!I!e#G#5#f#{ { D#      ",
"                  r %#g#I!I!I!n!Y!@!D!O!h#I!I!a!{ { { i!{!      ",
"                  r i#I!I!I!I!I!I!j#O!  u!<!I!e!{ { ' {!        ",
"                  h k#I!I!I!I!I!I!D!      p!I!K!i!D#{!          ",
"                    u *!*!?!k#l#l#O!        '#m#D#              ",
"                        # 6!X D!O!                              "};
