/* XPM */ 
static char * search_xpm[] = {
"32 32 196 2",
"  	c None",
"! 	c black",
"# 	c #72706F",
"$ 	c #686665",
"% 	c #747271",
"& 	c #585352",
"' 	c #4C4847",
"( 	c #52463F",
") 	c #696766",
"* 	c #6A6968",
"+ 	c #A4A19E",
", 	c #B5B3B2",
"- 	c #9B9997",
". 	c #837C75",
"0 	c #595553",
"1 	c #4B4949",
"2 	c #4F4C4C",
"3 	c #5F5C5B",
"4 	c #5E5A57",
"5 	c #A29F9C",
"6 	c #623F28",
"7 	c #673F24",
"8 	c #95745A",
"9 	c #B1E2FE",
": 	c #4B4848",
"; 	c #6D6B6A",
"< 	c #B9B6B3",
"= 	c #887C72",
"> 	c #5B3E2B",
"? 	c #824F2A",
"@ 	c #917763",
"A 	c white",
"B 	c #656361",
"C 	c #B0AFAF",
"D 	c #55504F",
"E 	c #7F7A75",
"F 	c #63615F",
"G 	c #7A7774",
"H 	c #672F0B",
"I 	c #946846",
"J 	c #666463",
"K 	c #62605E",
"L 	c #5A2B0D",
"M 	c #834C25",
"N 	c #915121",
"O 	c #8C4E21",
"P 	c #82512D",
"Q 	c #A98D74",
"R 	c #543D2E",
"S 	c #C19A74",
"T 	c #EDE9DF",
"U 	c #E0D3C4",
"V 	c #DFA56C",
"W 	c #9F561F",
"X 	c #6A3515",
"Y 	c #5C5754",
"Z 	c #B19173",
"[ 	c #FCFCF8",
"] 	c #DBE2E2",
"^ 	c #9E8B79",
"_ 	c #894C20",
"` 	c #874B21",
"a 	c #A48C77",
"b 	c #6F6E6D",
"c 	c #DEC5AA",
"d 	c #F7F6F2",
"e 	c #815534",
"f 	c #A45A21",
"g 	c #BA6B2A",
"h 	c #9F9D9B",
"i 	c #979693",
"j 	c #938C83",
"k 	c #4D4744",
"l 	c #693D20",
"m 	c #FEFBF0",
"n 	c #F4F2ED",
"o 	c #4E3F37",
"p 	c #030101",
"q 	c #D0A173",
"r 	c #F3EFE4",
"s 	c #F3F1E8",
"t 	c #D7D3CB",
"u 	c #BCBAB6",
"v 	c #A6A39F",
"w 	c #928E8A",
"x 	c #513E33",
"y 	c #914F21",
"z 	c #C97D3A",
"{ 	c #DDA063",
"| 	c #825331",
"} 	c #C47531",
"~ 	c #CC8644",
" !	c #989795",
"!!	c #BEBAB5",
"#!	c #E0E2E0",
"$!	c #959490",
"%!	c #95623D",
"&!	c #97623C",
"'!	c #CA813E",
"(!	c #BF6E2A",
")!	c #B86928",
"*!	c #C77935",
"+!	c #C67733",
",!	c #D18C49",
"-!	c #BC9874",
".!	c #918D88",
"0!	c #D0D1CE",
"1!	c #F6F5F1",
"2!	c #9C9B99",
"3!	c #8E7A68",
"4!	c #955321",
"5!	c #6C320E",
"6!	c #52453C",
"7!	c #D38F4B",
"8!	c #C3732E",
"9!	c #B26424",
":!	c #AB6025",
";!	c #B56727",
"<!	c #C98342",
"=!	c #AAA5A0",
">!	c #B6B4B3",
"?!	c #CDD1D0",
"@!	c #E3E3E0",
"A!	c #E6E6E2",
"B!	c #ADA8A3",
"C!	c #5C5755",
"D!	c #693717",
"E!	c #986D4C",
"F!	c #BC6C2A",
"G!	c #AF6224",
"H!	c #C4BDB4",
"I!	c #D4D2CC",
"J!	c #F5F3F0",
"K!	c #EBE8E0",
"L!	c #BAB8B5",
"M!	c #865D3E",
"N!	c #E0A76F",
"O!	c #8F6343",
"P!	c #AE6225",
"Q!	c #A95E23",
"R!	c #C9BDB0",
"S!	c #E1E2DF",
"T!	c #FBF9F5",
"U!	c #F4F3EF",
"V!	c #9A5520",
"W!	c #854B22",
"X!	c #DEA368",
"Y!	c #534339",
"Z!	c #C2712C",
"[!	c #ADADAD",
"]!	c #94918E",
"^!	c #D08A47",
"_!	c #A2581F",
"`!	c #AEA9A5",
"a!	c #B3B1B1",
"b!	c #47210A",
"c!	c #6A391A",
"d!	c #834D27",
"e!	c #817B74",
"f!	c #D2D1CD",
"g!	c #767473",
"h!	c #632E0D",
"i!	c #625F5D",
"j!	c #524E4D",
"k!	c #B26222",
"l!	c #FCFBF7",
"m!	c #180E0A",
"n!	c #53280C",
"o!	c #C79D73",
"p!	c #C1BCB5",
"q!	c #777674",
"r!	c #7D7975",
"s!	c #84756B",
"t!	c #3E1F0D",
"u!	c #DC9854",
"v!	c #C3742F",
"w!	c #DBA673",
"x!	c #805636",
"y!	c #DD9D5C",
"z!	c #AEACAA",
"{!	c #A39182",
"|!	c #371B0C",
"}!	c #4D250C",
"~!	c #DEA872",
" #	c #92908D",
"!#	c #2E160A",
"##	c #28140A",
"$#	c #582A0D",
"%#	c #DA9651",
"&#	c #3B1E0E",
"'#	c #D7934E",
"(#	c #E4E5E1",
")#	c #693B1C",
"*#	c #411F0C",
"+#	c #DD9B58",
",#	c #33180B",
"                                                                ",
"                                                                ",
"                                                                ",
"                                                                ",
"                              # $ # % & ' ( $                   ",
"                          ) * + , - . & & 0 1 2 3               ",
"                        4 5 , # 6 7 8 9 9 9 9 9 0 : #           ",
"                      ; < = > ? @ 9 9 A A 9 9 9 9 9 & B         ",
"                    4 C D 6 9 9 9 9 9 A A 9 A A A 9 9 # E       ",
"                  F G 4 H I 9 9 9 9 9 9 9 9 A A A A 9 9 J K     ",
"                  D 0 L M N O P Q 9 9 9 9 9 9 A A A A 9 9 *     ",
"                . 3 R S T U V W X Q 9 9 9 9 9 9 9 A A A 9 D K   ",
"                Y ' Z [ [ ] ^ I _ ` a 9 9 9 9 9 9 9 A A 9 ) b   ",
"                1 7 c [ d 4 ! e f g Z Z h - i 9 9 9 A A 9 j k   ",
"                ' l V m n o p e g q U r s t u v 9 9 9 A 9 w x   ",
"          y     ' ? z { c 8 | } ~ c ,  !!!n #!, $!9 9 A 9 $!x   ",
"        %!&!    * I '!(!)!*!} +!,!-!.!0 F 0!1!0!2!9 9 9 9 E o   ",
"      3!4!5!    6!8 7!z 8!9!:!;!<!=!>!< ?!@!1!A!B!- 9 9 9 C!1   ",
"      *!*!D!Z E!<!4 <!z +!F!G!:!<!H!H!I!J![ 1!K!L!5 9 9 9 2 B   ",
"    M!z 4!H V   N!e O!z +!g P!Q!-!R!0!S!J!T!U!n L!5 9 9 ) $ K   ",
"    E!V!W!X!c ~ g 8 Y!g Z!9!W O!-!R!t 0!0!A!A!K![!5 9 j . ]!    ",
"  y e 5!^!z _!H @   = > V!_!_ E!`!H!L! !H!S!A!S!v h .!C!a!E     ",
"y Q b!:!*!g 5!c!I d!`!# Y!6 7 e!h C 5 .! !L!f!!!.!F g!L!.       ",
"  y h!;!(!W E!T!T g 5!a k : D 3 ) . .!.!3 1 F i!j!B a!.!        ",
"  y | *!F!k!U l!m!n!(!o!p!q!F r!$ 2 : 1 2 C!J s!D n!t!          ",
"  a _ 7!u!z v!w!x!:!y!u [![ $!# i z!=!=!z!u {!L |!}!}!Y         ",
"  3!_!y!r ~!} k!} Z!S  #j!H![ .!              L L !#t!##$#      ",
"  M!f %#~!~!,!*!;!_!-!?![ [ [ $!                L &#!#!#R       ",
"  x!H 8!^!'#u!*!k!W S (#A!U![ ]!                $#L p }!}!L     ",
"  )#H h!_!)!v!;!4!I ?![!2!T![ ]!                  L &#*#X Y!$#  ",
"  l _ _ h!H H )#G q! #+ # ; B!                      L !#n!L $#  ",
"  d!E!+#{ 7!E!I      !j j  #                          L ,#c!    "};
