/* XPM */ 
static char * servers_xpm[] = {
"32 32 437 2",
"  	c None",
"! 	c black",
"# 	c #9EAAB9",
"$ 	c #9DA3AA",
"% 	c #B7BDC5",
"& 	c #9DAAB8",
"' 	c #889DB5",
"( 	c #7E9BBE",
") 	c #87A9D3",
"* 	c #9FC4F1",
"+ 	c #B5DAFF",
", 	c #6A88AC",
"- 	c #485E78",
". 	c #4B6079",
"0 	c #506178",
"1 	c #566477",
"2 	c #75808D",
"3 	c #727B88",
"4 	c #98A6B8",
"5 	c #7C94B1",
"6 	c #809EC3",
"7 	c #88ABD6",
"8 	c #93BAEB",
"9 	c #A1CBFE",
": 	c #AED9FF",
"; 	c #B6E2FF",
"< 	c #B8E1FF",
"= 	c #C0E3FF",
"> 	c #CCE9FF",
"? 	c #8BABD2",
"@ 	c #708BAB",
"A 	c #7792B4",
"B 	c #728DAF",
"C 	c #6C88A9",
"D 	c #637E9E",
"E 	c #536F90",
"F 	c #556880",
"G 	c #8FB9EE",
"H 	c #A9D2FF",
"I 	c #AED7FF",
"J 	c #AFD7FF",
"K 	c #ADD4FF",
"L 	c #AAD1FF",
"M 	c #ABD1FF",
"N 	c #ACD1FF",
"O 	c #B7D8FF",
"P 	c #C7E4FF",
"Q 	c #84A3C9",
"R 	c #69819F",
"S 	c #6F88A7",
"T 	c #6E88A7",
"U 	c #6E87A6",
"V 	c #6E88A6",
"W 	c #718DAE",
"X 	c #647A95",
"Y 	c #9CC1F0",
"Z 	c #A1C6F3",
"[ 	c #A3C9F6",
"] 	c #A5CBF9",
"^ 	c #A7CDFC",
"_ 	c #A8D0FF",
"` 	c #ADD1FF",
"a 	c #ADD2FF",
"b 	c #B9D9FF",
"c 	c #CAE6FF",
"d 	c #86A5CB",
"e 	c #6982A1",
"f 	c #708AA8",
"g 	c #7089A8",
"h 	c #6D86A5",
"i 	c #6B86A6",
"j 	c #647A92",
"k 	c #99BFEE",
"l 	c #A3C7F5",
"m 	c #A7CDFB",
"n 	c #A8CFFE",
"o 	c #AED2FF",
"p 	c #BBDAFF",
"q 	c #CCE7FF",
"r 	c #86A4CA",
"s 	c #6C89AC",
"t 	c #7594B9",
"u 	c #7391B4",
"v 	c #728EB0",
"w 	c #708CAD",
"x 	c #6C89AD",
"y 	c #677D96",
"z 	c #98C0F0",
"{ 	c #A4CAF7",
"| 	c #A6CCFB",
"} 	c #A8CEFE",
"~ 	c #AFD3FF",
" !	c #B0D4FF",
"!!	c #BCDBFF",
"#!	c #CFE9FF",
"$!	c #89AAD1",
"%!	c #667992",
"&!	c #7B7999",
"'!	c #7685A2",
"(!	c #6B849D",
")!	c #6C85A4",
"*!	c #6888AF",
"+!	c #6A7F97",
",!	c #97BFF0",
"-!	c #A7CEFD",
".!	c #A9D0FF",
"0!	c #B1D4FF",
"1!	c #BEDCFF",
"2!	c #D2EBFF",
"3!	c #91B4DE",
"4!	c #616166",
"5!	c #313928",
"6!	c #4B4B48",
"7!	c #625D5D",
"8!	c #525558",
"9!	c #40464E",
":!	c #606A76",
";!	c #9CC4F4",
"<!	c #B2D5FF",
"=!	c #BFDDFF",
">!	c #D5ECFF",
"?!	c #99A4D9",
"@!	c #59827A",
"A!	c #00CB58",
"B!	c #166339",
"C!	c #4B4363",
"D!	c #986D3C",
"E!	c #BF5700",
"F!	c #555A61",
"G!	c #A2C8F8",
"H!	c #B3D6FF",
"I!	c #B4D5FF",
"J!	c #C1DDFF",
"K!	c #D8EEFF",
"L!	c #97AADC",
"M!	c #636E6F",
"N!	c #02DE6D",
"O!	c #1B814E",
"P!	c #4B3655",
"Q!	c #916C3D",
"R!	c #DE7000",
"S!	c #616264",
"T!	c #A0C8F9",
"U!	c #A8CFFF",
"V!	c #B0D3FF",
"W!	c #B4D6FF",
"X!	c #B5D6FF",
"Y!	c #C3DEFF",
"Z!	c #DBF0FF",
"[!	c #92B7E0",
"]!	c #656474",
"^!	c #575254",
"_!	c #616568",
"`!	c #616164",
"a!	c #565C64",
"b!	c #4A5057",
"c!	c #6D7681",
"d!	c #A0C8FA",
"e!	c #ACD2FF",
"f!	c #B3D5FF",
"g!	c #B6D7FF",
"h!	c #C4DFFF",
"i!	c #DFF2FF",
"j!	c #8EADD4",
"k!	c #6D8BAD",
"l!	c #7D8BB4",
"m!	c #798EB3",
"n!	c #7492B1",
"o!	c #718EB1",
"p!	c #6A8DB8",
"q!	c #74879F",
"r!	c #9FC8FA",
"s!	c #B7D7FF",
"t!	c #C5DFFF",
"u!	c #E1F3FF",
"v!	c #8FAED5",
"w!	c #6F8BAE",
"x!	c #7893B7",
"y!	c #7793B5",
"z!	c #7592B3",
"{!	c #7490B2",
"|!	c #7694B9",
"}!	c #7387A0",
"~!	c #9EC8FB",
" #	c #B2D4FF",
"!#	c #B8D8FF",
"##	c #C6E0FF",
"$#	c #E3F4FF",
"%#	c #90B0D6",
"&#	c #6F8AAC",
"'#	c #7691B3",
"(#	c #7691B2",
")#	c #7590B0",
"*#	c #748EAF",
"+#	c #728FB2",
",#	c #778AA1",
"-#	c #9BC6FA",
".#	c #AFD2FF",
"0#	c #C7E0FF",
"1#	c #E6F5FF",
"2#	c #91B0D7",
"3#	c #6F8AAD",
"4#	c #748FAF",
"5#	c #7A8CA2",
"6#	c #A1CAFD",
"7#	c #B9D8FF",
"8#	c #C8E1FF",
"9#	c #E8F7FF",
":#	c #92B1D7",
";#	c #7792B3",
"<#	c #7691B1",
"=#	c #7490B0",
">#	c #7C8FA5",
"?#	c #A7CFFF",
"@#	c #ADD3FF",
"A#	c #BAD9FF",
"B#	c #C9E2FF",
"C#	c #E9F7FF",
"D#	c #92B2D8",
"E#	c #708CAE",
"F#	c #6F7D94",
"G#	c #642909",
"H#	c #A4CDFF",
"I#	c #B8D7FF",
"J#	c #BBD9FF",
"K#	c #CAE2FF",
"L#	c #ECF9FF",
"M#	c #93B2D8",
"N#	c #708CAF",
"O#	c #7893B5",
"P#	c #7892B4",
"Q#	c #717E94",
"R#	c #632809",
"S#	c #D38B4B",
"T#	c #DCA36C",
"U#	c #D18849",
"V#	c #CE8240",
"W#	c #AE6227",
"X#	c #A3CCFF",
"Y#	c #CBE3FF",
"Z#	c #EEFAFF",
"[#	c #94B3D9",
"]#	c #708DB0",
"^#	c #7894B6",
"_#	c #C77631",
"`#	c #B7692A",
"a#	c #EBC999",
"b#	c #E4B886",
"c#	c #D38E52",
"d#	c #9A5522",
"e#	c #BCDAFF",
"f#	c #CCE3FF",
"g#	c #F0FBFF",
"h#	c #95B4DA",
"i#	c #7995B6",
"j#	c #737F95",
"k#	c #77380F",
"l#	c #E1AF7C",
"m#	c #D7995A",
"n#	c #86461A",
"o#	c #A6CEFE",
"p#	c #BDDBFF",
"q#	c #BDDAFF",
"r#	c #F1FCFF",
"s#	c #708DB1",
"t#	c #7995B7",
"u#	c #7994B6",
"v#	c #8E4A1A",
"w#	c #D48D4E",
"x#	c #AE6327",
"y#	c #A9CFFE",
"z#	c #BEDBFF",
"{#	c #CDE3FF",
"|#	c #F2FCFF",
"}#	c #96B5DB",
"~#	c #718EB2",
" $	c #7A95B7",
"!$	c #7893B4",
"#$	c #954F1D",
"$$	c #B86B2C",
"%$	c #793910",
"&$	c #9B5724",
"'$	c #BFDCFF",
"($	c #CEE4FF",
")$	c #F3FDFF",
"*$	c #97B6DC",
"+$	c #718FB3",
",$	c #7A96B8",
"-$	c #A65D24",
".$	c #C67530",
"0$	c #5D2D0E",
"1$	c #DEAA7D",
"2$	c #EDCFB5",
"3$	c #B56F36",
"4$	c #AAD0FE",
"5$	c #B1D5FF",
"6$	c #CEE5FF",
"7$	c #F4FDFF",
"8$	c #98B7DC",
"9$	c #718FB4",
":$	c #7B96B9",
";$	c #748198",
"<$	c #C0712F",
"=$	c #D89F6E",
">$	c white",
"?$	c #DCD6D1",
"@$	c #8E4D1E",
"A$	c #45312A",
"B$	c #32373E",
"C$	c #AACFFE",
"D$	c #C0DCFF",
"E$	c #C0DDFF",
"F$	c #CFE5FF",
"G$	c #F5FEFF",
"H$	c #99B7DD",
"I$	c #7290B4",
"J$	c #7B97BA",
"K$	c #70320E",
"L$	c #CF874A",
"M$	c #F6E7DA",
"N$	c #9C9691",
"O$	c #414041",
"P$	c #A7602A",
"Q$	c #D4B595",
"R$	c #E5DCD2",
"S$	c #F2F2F1",
"T$	c #BDBDB6",
"U$	c #32373D",
"V$	c #B5D7FF",
"W$	c #C1DCFF",
"X$	c #D0E6FF",
"Y$	c #99B8DD",
"Z$	c #7390B5",
"[$	c #7A97B9",
"]$	c #954E1D",
"^$	c #DCA25C",
"_$	c #D79453",
"`$	c #CA7B38",
"a$	c #D49259",
"b$	c #C27739",
"c$	c #C68338",
"d$	c #CDAE80",
"e$	c #6B6C6F",
"f$	c #171614",
"g$	c #B3B3B0",
"h$	c #A5CEFD",
"i$	c #B4D7FF",
"j$	c #C2DEFF",
"k$	c #D1E6FF",
"l$	c #F6FEFF",
"m$	c #9AB8DE",
"n$	c #7391B6",
"o$	c #7C98BB",
"p$	c #AB6026",
"q$	c #D48E4F",
"r$	c #EFD5A7",
"s$	c #E1B17E",
"t$	c #B4682C",
"u$	c #AD6228",
"v$	c #BE7D3F",
"w$	c #B6B6B0",
"x$	c #AAAAA7",
"y$	c #A0A09F",
"z$	c #E3E3E0",
"{$	c #BBD8FA",
"|$	c #C2DDFF",
"}$	c #9BB9DE",
"~$	c #7392B6",
" %	c #CD813F",
"!%	c #D99A61",
"#%	c #DBA06B",
"$%	c #BD6F2E",
"%%	c #B67139",
"&%	c #D4CDC2",
"'%	c #E9E9E6",
"(%	c #F7F7F6",
")%	c #F9F9F9",
"*%	c #EEEEEC",
"+%	c #CDE1FA",
",%	c #B6D6FE",
"-%	c #D2E6FF",
".%	c #9BB9DF",
"0%	c #7392B7",
"1%	c #7C99BB",
"2%	c #7C98BA",
"3%	c #6E310C",
"4%	c #B5682A",
"5%	c #D89C47",
"6%	c #C77731",
"7%	c #BA6C2C",
"8%	c #A15821",
"9%	c #B68B67",
":%	c #C9C2B9",
";%	c #DCDCDA",
"<%	c #E9E9E7",
"=%	c #EFEFEE",
">%	c #E7E7E5",
"?%	c #CCE2FC",
"@%	c #C3DFFF",
"A%	c #D4E8FF",
"B%	c #F8FFFF",
"C%	c #9CBBE0",
"D%	c #7091B7",
"E%	c #7594BB",
"F%	c #7190B7",
"G%	c #A55C25",
"H%	c #A65D25",
"I%	c #9C5420",
"J%	c #7C4D2D",
"K%	c #A0A09E",
"L%	c #CACAC6",
"M%	c #64676B",
"N%	c #CCCCC7",
"O%	c #DFDFDB",
"P%	c #878889",
"Q%	c #CBE2FD",
"R%	c #CDE4FF",
"S%	c #93B5DD",
"T%	c #7392B8",
"U%	c #9AB0CA",
"V%	c #C2CEDD",
"W%	c #97511E",
"X%	c #833F14",
"Y%	c #682B09",
"Z%	c #652909",
"[%	c #572D16",
"]%	c #3F3330",
"^%	c #6D7072",
"_%	c #979797",
"`%	c #B3B3B2",
"a%	c #4E5257",
"b%	c #DDEBFD",
"c%	c #914C1B",
"d%	c #C37A31",
"e%	c #E49C3F",
"f%	c #D48C38",
"g%	c #AC6328",
"                      # $                                       ",
"          % & ' ( ) * + , - . 0 1 2 3                           ",
"  4 5 6 7 8 9 : ; < = > ? @ A B C D E F                         ",
"  G H I J K L L M N O P Q R S T U V W X                         ",
"  Y Z [ ] ^ _ L ` a b c d e f g U h i j                         ",
"  k l ] m n L N o o p q r s t u v w x y                         ",
"  z { | } L M a ~  !!!#!$!%!&!'!(!)!*!+!                        ",
"  ,!] -!.!M a o 0!0!1!2!3!4!5!6!7!8!9!:!                        ",
"  ;!| .!M a o ~ <!<!=!>!?!@!A!B!C!D!E!F!                        ",
"  G!-!L M o ~ 0!H!I!J!K!L!M!N!O!P!Q!R!S!                        ",
"  T!U!M a ~ V!<!W!X!Y!Z![!]!^!_!`!a!b!c!                        ",
"  d!.!e!o V!<!f!g!g!h!i!j!k!l!m!n!o!p!q!                        ",
"  r!L a ~ 0!f!W!g!s!t!u!v!w!x!y!z!{!|!}!                        ",
"  ~!L o ~  #H!X!s!!###$#%#&#'#(#)#*#+#,#                        ",
"  -#L .#V!<!W!g!!#!#0#1#2#3#A (#)#4#+#5#                        ",
"  6#e!~ 0!f!X!g!7#b 8#9#:#w!A ;#<#=#+#>#                        ",
"  ?#@#V!<!H!X!s!A#A#B#C#D#E#A A (#)#F#G#G#G#    G#G#G#G#G#G#G#  ",
"  H#@#0!<!W!g!I#J#p K#L#M#N#O#P#(#Q#R#S#G#  G#G#T#U#V#V#W#G#    ",
"  X#@#0!f!X!s!7#p p Y#Z#[#]#^#O#;#G#_#`#G#G#a#b#c#V#d#G#G#      ",
"  9 @#<!W!g!!#A#!!e#f#g#h#]#i#O#j#R#`#k#V#l#m#U#n#G#G#          ",
"  o#~ <!W!s!7#J#p#q#f#r#h#s#t#u#G#G#v#V#w#V#x#G#                ",
"  y# !f!g!s!b p z#z#{#|#}#~# $u#!$G##$$$x#x#%$&$G#              ",
"  y#0!W!g!!#A#e#'$'$($)$*$+$,$t#G#G#-$$$.$0$1$2$3$G#            ",
"  4$5$X!s!7#p p#'$'$6$7$8$9$:$,$;$G#$$<$.$=$>$?$! @$G#A$B$B$    ",
"  C$5$X!s!b p p#D$E$F$G$H$I$J$,$G#K$_#V#_#L$M$N$O$P$Q$R$S$T$U$  ",
"  4$<!V$!#A#!!z#W$J!X$G$Y$Z$J$[$G#]$w#^$_$`$L$a$b$c$d$e$f$S$g$B$",
"  h$i$g!!#A#p#'$J!j$k$l$m$n$o$J$G#p$q$r$s$w#`$t$u$v$w$x$y$S$z$B$",
"  {$.!i$b e#p#'$|$j$k$l$}$~$o$J$G##$ %!%#%w#`$$%u$%%&%'%(%)%*%B$",
"      +%,%O !!J!Y!Y!-%l$.%0%1%2%G#3%4% % %5%6%7%8%9%:%;%<%=%>%B$",
"            ?%e#=!@%A%B%C%D%E%F%G#%$G#G%G%H%G%I%J%K%L%M%N%O%P%B$",
"                  Q%R%r#S%T%U%V%3%v#W%X%Y%Z%[%]%B$^%_%`%a%B$B$  ",
"                      b%        3%c%d%e%f%g%Z%    B$B$B$B$      "};
