/* XPM */ 
static char * sharedfiles_xpm[] = {
"32 32 168 2",
"  	c None",
"! 	c black",
"# 	c #0D4C7E",
"$ 	c #0169B4",
"% 	c #017AD3",
"& 	c #008AE2",
"' 	c #114D7E",
"( 	c #0077B5",
") 	c #009FFF",
"* 	c #ADEEBC",
"+ 	c #61DB7C",
", 	c #48C460",
"- 	c #0094FE",
". 	c #86D997",
"0 	c #248E87",
"1 	c #177073",
"2 	c #114F80",
"3 	c #168882",
"4 	c #27B768",
"5 	c #00AAFD",
"6 	c #00A5FF",
"7 	c #25AD6C",
"8 	c #5CBC6D",
"9 	c #CBF5D4",
": 	c #2BD16C",
"; 	c #00C5FA",
"< 	c #00BEFB",
"= 	c #00B1F9",
"> 	c #87E79D",
"? 	c #32BA4D",
"@ 	c #32B54B",
"A 	c #31AD4B",
"B 	c #2B994F",
"C 	c #076793",
"D 	c #17AAB1",
"E 	c #00CFFA",
"F 	c #00D3F9",
"G 	c #00C8F6",
"H 	c #32C752",
"I 	c #218E65",
"J 	c #074C7F",
"K 	c #4F3924",
"L 	c #6E3A06",
"M 	c #679DA3",
"N 	c #00E4FB",
"O 	c #12DFFA",
"P 	c #04DDF9",
"Q 	c #00B5F7",
"R 	c #93F9AC",
"S 	c #2A9F58",
"T 	c #005497",
"U 	c #043C6C",
"V 	c #572E07",
"W 	c #733D0B",
"X 	c #085286",
"Y 	c #00D1F7",
"Z 	c #A3F1FD",
"[ 	c #3FE2FA",
"] 	c #00B8F6",
"^ 	c #2CB55C",
"_ 	c #043961",
"` 	c #48331F",
"a 	c #6C3909",
"b 	c #97632C",
"c 	c #AA743B",
"d 	c #4A453C",
"e 	c #026BA1",
"f 	c #29B061",
"g 	c #2EDEFA",
"h 	c #32E55E",
"i 	c #00549E",
"j 	c #A36B35",
"k 	c #B58044",
"l 	c #6A3606",
"m 	c #854A14",
"n 	c #464A4A",
"o 	c #015D9D",
"p 	c #00A0EE",
"q 	c #33EF60",
"r 	c #1FA079",
"s 	c #0089F6",
"t 	c #0077E2",
"u 	c #257F37",
"v 	c #17562D",
"w 	c #243C50",
"x 	c #BE8C4E",
"y 	c #9F6831",
"z 	c #8A531E",
"{ 	c #B47C44",
"| 	c #2C2D2B",
"} 	c #024373",
"~ 	c #478E5B",
" !	c #0099D3",
"!!	c #00B7EC",
"#!	c #00C5F1",
"$!	c #5DF180",
"%!	c #0093EF",
"&!	c #0086E6",
"'!	c #0077C8",
"(!	c #324630",
")!	c #C58E54",
"*!	c #C38C4F",
"+!	c #BB844A",
",!	c #935C26",
"-!	c #00192B",
".!	c #1A6A33",
"0!	c #008CBF",
"1!	c #0098CA",
"2!	c #002D57",
"3!	c #D49C5E",
"4!	c #CB9457",
"5!	c #C59656",
"6!	c #7D4814",
"7!	c #022A46",
"8!	c #3C5941",
"9!	c #0077AB",
":!	c #005C96",
";!	c #DAAA75",
"<!	c #CA9D5B",
"=!	c #CF9D63",
">!	c #E0B78A",
"?!	c #D8A46B",
"@!	c #D6A165",
"A!	c #E5C79F",
"B!	c #E3BD93",
"C!	c #8E5621",
"D!	c #7C430B",
"E!	c #86511C",
"F!	c #DAB57C",
"G!	c #F2E0CC",
"H!	c white",
"I!	c #CA955A",
"J!	c #834C19",
"K!	c #99612B",
"L!	c #996433",
"M!	c #B17A40",
"N!	c #713A05",
"O!	c #623717",
"P!	c #9C6D3B",
"Q!	c #C49559",
"R!	c #764922",
"S!	c #895A2E",
"T!	c #CFA668",
"U!	c #926334",
"V!	c #D4B07B",
"W!	c #C79959",
"X!	c #C59857",
"Y!	c #875A2E",
"Z!	c #6E431E",
"[!	c #8D5D30",
"]!	c #DBB984",
"^!	c #A67641",
"_!	c #E0C292",
"`!	c #D4AA6D",
"a!	c #CDA262",
"b!	c #B2854E",
"c!	c #9F7240",
"d!	c #905318",
"e!	c #D7B177",
"f!	c #8F6436",
"g!	c #DEBE8A",
"h!	c #EAD6B5",
"i!	c #DBB87E",
"j!	c #D6AE71",
"k!	c #B78C54",
"l!	c #B07F49",
"m!	c #F5EAD9",
"n!	c #8B4E15",
"                                                                ",
"                          # # # # # # #                         ",
"                      # # $ % & & & % $ # #                     ",
"                    ' ( & ) ) * + , - . 0 1 '                   ",
"                  2 3 . 4 5 5 6 7 ) . . , 8 3 '                 ",
"                2 3 9 : ; < = > 7 ) > ? @ A B C '               ",
"                2 9 : D E F G : = 5 * H ? @ I 1 J K L L L       ",
"              2 M : D N O P F ; Q R > H H ? S % T U V V W L     ",
"              X , D Y N Z [ Y G ] = + 7 ^ ? A I $ _ ` a b c L   ",
"            d e f ; E P g O F 9 R * h 3 - I S B i _ K j k k L l ",
"          m n o p < G F F F F R q h r ) - s t u v w j x k k y L ",
"        z { | } ~  !!!#!#!G G $!h 4 3 %!&!'!i _ (!c )!*!+!k k L ",
"      ,!+!L | -!v .!( 0!1!1! ! !I 1 '!$ o _ 2!w { 3!4!4!x +!L   ",
"    ,!5!L 6!| 7!8!v .!C e 9!9!9!9!e :!J } _ w c ;!3!<!4!)!L     ",
"  ,!=!m )!)!)!)!)!*!*!x *!*!*!*!+!*!*!*!*!+!b ;!>!?!3!)!L       ",
"    m ;!;!;!?!?!@!@!@!@!3!3!3!3!3!3!3!3!+!L L <!A!;!4!L L       ",
"  m ;!B!;!;!;!?!?!@!@!@!@!3!3!3!3!3!3!+!L C!D!E!;!@!L 6!L       ",
"m F!G!H!G!A!B!B!B!F!F!F!;!;!;!;!;!?!I!L ,!c J!L @!L 6!J!L       ",
"m m m D!D!D!D!D!W W W W W W L L L L L K!j y K!W L 6!J!C!L       ",
"      L c c c c c c c c c c c c c c c c j y K!J!6!J!C!C!L       ",
"      D!{ k { { { { { { L!L!M!M!c c c c c j K!K!J!,!C!C!L       ",
"      m +!x x x x +!c L ! N!O!P!k { { { { j K!K!,!,!C!C!L       ",
"      J!x Q!*!x x x N!O!R!S!N!k k k k { { j K!K!,!,!C!C!L       ",
"      z x T!5!5!*!*!L ! U!k +!k k k k { { j K!K!,!,!C!C!L       ",
"      z 5!V!<!W!X!5!Y!N!Z!N![!+!+!+!+!+!+!j K!K!,!,!C!J!L       ",
"      z 5!]!<!<!<!W!5!^!U!! D!U!+!+!+!+!+!j K!K!,!,!J!L         ",
"      z =!_!`!T!a!a!b!Q!X!c!! U!x x x x +!j K!K!,!J!L           ",
"      d!e!A!F!`!`!=!b f!P!Y!! ^!)!x x x +!j K!K!J!L             ",
"      z g!h!g!i!j!T!k!! N!! l!)!)!)!)!)!)!j K!J!L               ",
"      d!A!m!A!]!F!j!`!`!@!=!<!I!I!5!5!5!)!N!N!L                 ",
"      n!N!N!N!N!N!N!N!N!N!N!N!N!N!N!N!N!N!N!l                   ",
"                                                                "};
