/* XPM */ 
static char * statistics_xpm[] = {
"32 32 116 2",
"  	c None",
"! 	c black",
"# 	c #B9F0FE",
"$ 	c #044676",
"% 	c #4A4A5D",
"& 	c #65C9EC",
"' 	c #4BD0F5",
"( 	c #34394C",
") 	c #213D5C",
"* 	c #242840",
"+ 	c #1E2252",
", 	c #0C3C62",
"- 	c #143959",
". 	c #1E3249",
"0 	c #0D4758",
"1 	c #1C203A",
"2 	c #01556D",
"3 	c #45AEDB",
"4 	c #6BD4F4",
"5 	c #0A5FAE",
"6 	c #01708D",
"7 	c #0175A2",
"8 	c #016BB4",
"9 	c #017CA4",
": 	c #0168AF",
"; 	c #017BC0",
"< 	c #6DCEF0",
"= 	c #515161",
"> 	c #3D3E78",
"? 	c #0173BA",
"@ 	c #85DAF6",
"A 	c #77D5F4",
"B 	c #2398D1",
"C 	c #353541",
"D 	c #0589CA",
"E 	c #A0E7FC",
"F 	c #93D3F3",
"G 	c #0E94D2",
"H 	c #ABEBFD",
"I 	c #089BD8",
"J 	c #04406C",
"K 	c #36A8DB",
"L 	c #A6ECFE",
"M 	c #8BE3FB",
"N 	c #97DDF1",
"O 	c #27ABDF",
"P 	c #444451",
"Q 	c #2FB2E3",
"R 	c #59C6EC",
"S 	c #92E4FB",
"T 	c #0192BC",
"U 	c #A8E3F8",
"V 	c #4BC5ED",
"W 	c #4C4C61",
"X 	c #84E2FB",
"Y 	c #1AA4DB",
"Z 	c #5FD6F7",
"[ 	c #5C5C6D",
"] 	c #48BAE5",
"^ 	c #B7EDFC",
"_ 	c #38AFE0",
"` 	c #39BBE8",
"a 	c #2DBAEA",
"b 	c #21B3E7",
"c 	c #1B91CD",
"d 	c #01C3F8",
"e 	c #75CFEF",
"f 	c #8DE8FE",
"g 	c #19B3E7",
"h 	c #044777",
"i 	c #1898D2",
"j 	c #77BED4",
"k 	c #96D8E9",
"l 	c #23B7E9",
"m 	c #09B4EB",
"n 	c #78C0D4",
"o 	c #2597C5",
"p 	c #01AAE4",
"q 	c #09566B",
"r 	c #53537E",
"s 	c #0299D7",
"t 	c #0192D2",
"u 	c #019BD9",
"v 	c #019AC5",
"w 	c #02B8EF",
"x 	c #01C1F5",
"y 	c #127BB3",
"z 	c #9CEAFE",
"{ 	c #02A1DD",
"| 	c #01A3CF",
"} 	c #014F85",
"~ 	c #1EABE0",
" !	c #01AEE8",
"!!	c #01A5E0",
"#!	c #3E3E8F",
"$!	c #12B3E9",
"%!	c #01B3EB",
"&!	c #0CB0E7",
"'!	c #01528A",
"(!	c #0DAEE5",
")!	c #10AAE1",
"*!	c #92E8FD",
"+!	c #01B1E2",
",!	c #01BCF2",
"-!	c #636365",
".!	c #025691",
"0!	c #01649B",
"1!	c #5F5F70",
"2!	c #00A5D5",
"3!	c #056078",
"4!	c #383E4F",
"5!	c #636377",
"6!	c #016495",
"7!	c #018BB9",
"8!	c #6B6B6B",
"9!	c #8DCDEC",
"                              #                                 ",
"                              #                       $ $ ! %   ",
"                            & # ' ( ) * + + , - . 0 ! ! ! 1 !   ",
"                  $ 2 1 1 . 3 # 4 5 6 7 8 9 9 8 9 8 : 8 8 1 -   ",
"        1 - , 0 2 2 6 6 7 ; < # 4 9 8 8 9 9 9 8 8 : : 8 8 1 -   ",
"      = > 9 8 8 9 8 8 8 9 ? @ # A 8 9 B # ; 9 : : : : : 8 1 C   ",
"      = > 9 8 8 9 8 8 9 8 D E # F 9 9 4 # D 8 : : : : 8 8 1 C   ",
"      = > 8 8 8 9 9 9 8 9 G H # F 8 8 F # I 8 : : : : 8 8 1 (   ",
"      = J 9 9 8 8 8 8 8 9 K L # M ; 8 N # O 8 : : : 8 8 8 1 P   ",
"      = J 9 9 8 8 G D 8 8 Q # R # ; ? S # 3 ? 8 8 8 ? ? ? 1 P   ",
"      = J 9 9 8 ? # R 8 8 R # R # ? T # U & ? ; ; ? ? ; ? 1 %   ",
"      = J 9 8 8 T # L ? 8 4 # V # T G # N @ T ; ? ? ; ; ? 1 W   ",
"      = > 9 9 8 I # # I ? X # 3 # T Y # Z # I ; ; ? ; D T 1 =   ",
"      [ > 9 9 ? ] ^ # _ T # # ` # D _ # a # b D c I Y b Q d 4 A ",
"      = J 9 8 ? e # f Z I # Q Q # I ` # g # a R N E # # # L     ",
"      [ h ? ; i # j R k l # O _ # m n # m # R # & a ` o p q r   ",
"      d o 3 R A # O ` L j # Y _ # o & A s # # # O t u u t . =   ",
"    L L # # @ 4 V D Y U X # i b # l # R u Z # H m v t u t . =   ",
"< < w x y i c t T T s z L k u b # ` # ' v ' # z p t t { | . =   ",
"      = } D D D D D u X # Z t ~ # ' # a t a # 4 p |  !!!!!. =   ",
"      [ #!D u u t t t j # j t B # j # l { B # ' p p p p p . =   ",
"      = 2 t u t v v t a # ` { o # Z # $!!!%!# $!p !!!!&!%!- =   ",
"      = '!s u t t t t o # m !!o # F # m (!(!%!%!%!%!%!&!%!- =   ",
"      = 5 t { | | |  ! !# p (!)!# *!# %!%!%!%!&!+!,!,!~ ,!- =   ",
"      -!6 | !! !!!p p p p p !!)!# S # w %!,!~ ,!,!,!,!x w - =   ",
"      r .!p p (!(! !&!%!%!&!%!,!# H F ,!~ ,!,!x x d d d 4 - =   ",
"      = 0!!!!!%!%!%!%!%!&!,!,!x # # Z x x x d w 4 w 4 w w 1 =   ",
"      1!0!%!%!%!+!,!,!,!+!+!Y 2!A # V .!3!h . + 1 1 ! ( 4!% 5!  ",
"      1!6!,!%!v 7!8 .!2 h . 1 h n # 4 8!                        ",
"        1 1 + P $ $ $ $         9!#                             ",
"                                  #                             ",
"                                  #                             "};
