/* XPM */ 
static char * tools_xpm[] = {
"32 32 104 2",
"  	c None",
"! 	c black",
"# 	c #ADADAD",
"$ 	c #A6A6A6",
"% 	c #9A9A9A",
"& 	c #BCBCBC",
"' 	c #7D7D7D",
"( 	c #717171",
") 	c #BDBDBD",
"* 	c #C9C9C9",
"+ 	c #FEFEFE",
", 	c #F6F6F6",
"- 	c #E2E2E2",
". 	c #898989",
"0 	c #DEDEDE",
"1 	c #B2B2B2",
"2 	c #575757",
"3 	c #949494",
"4 	c #656565",
"5 	c #868686",
"6 	c #6E6E6E",
"7 	c #E9E9E9",
"8 	c #424242",
"9 	c #C0C0C0",
": 	c #454545",
"; 	c #30291E",
"< 	c #4F4F4F",
"= 	c #D1D1D1",
"> 	c #372414",
"? 	c #857665",
"@ 	c #5E5E5E",
"A 	c #130F0A",
"B 	c #331F0D",
"C 	c #47290F",
"D 	c #844713",
"E 	c #AF9378",
"F 	c #352D28",
"G 	c #6F421A",
"H 	c #8A4D14",
"I 	c #B66B23",
"J 	c #8B765F",
"K 	c #EEEEEE",
"L 	c #675544",
"M 	c #845321",
"N 	c #965817",
"O 	c #D78835",
"P 	c #D9D9D9",
"Q 	c #87715A",
"R 	c #8E5D29",
"S 	c #A5641F",
"T 	c #E9993F",
"U 	c #AE9F8F",
"V 	c #9E9E9E",
"W 	c #947C64",
"X 	c #9A6932",
"Y 	c #98601E",
"Z 	c #83623E",
"[ 	c #808080",
"] 	c #232323",
"^ 	c #8E7860",
"_ 	c #674C2F",
"` 	c #BEBAB5",
"a 	c #878480",
"b 	c #C4C2C0",
"c 	c #A29C96",
"d 	c #A39587",
"e 	c #855E36",
"f 	c #674523",
"g 	c #A25E1C",
"h 	c #CF8234",
"i 	c #827D79",
"j 	c #876B4D",
"k 	c #8E5926",
"l 	c #995414",
"m 	c #BC6F26",
"n 	c #9F7F61",
"o 	c #313131",
"p 	c #6F5235",
"q 	c #86501E",
"r 	c #914D0F",
"s 	c #A85813",
"t 	c #8C6847",
"u 	c #171717",
"v 	c #898179",
"w 	c #55381D",
"x 	c #7F4716",
"y 	c #864208",
"z 	c #954400",
"{ 	c #784F2D",
"| 	c #6C635A",
"} 	c #361B05",
"~ 	c #763C09",
" !	c #7A3800",
"!!	c #6E2F00",
"#!	c #664D3B",
"$!	c #453C35",
"%!	c #200E00",
"&!	c #592900",
"'!	c #442208",
"(!	c #7B604D",
")!	c #251F1A",
"*!	c #1C0E05",
"+!	c #5D4B3D",
",!	c #3B3633",
"                                                                ",
"                                                                ",
"                                                                ",
"                                                                ",
"                                                                ",
"                    # $ % &                   ' ' (             ",
"                ) * + , - - $               # + + + .           ",
"              ) - + - 0 1 1 % 2         & 3 * * % '             ",
"            1 0 + - * . 4 ( 5 6         $ * 0 ) 5               ",
"            7 + 7 * ' 8               # 9 - - (         & $     ",
"          9 * * ) 3 : ;               $ - , # <       & . 4     ",
"        = 1 $ . ( 6 ; > ?             % , 7 9 (     & $ 9 4     ",
"    = - + = 5 4 @ A B C D E           $ 7 , - 1 ' $ 1 = = (     ",
"  9 + + + , : : 5 6 F G H I J         6 - K + 7 * - 7 - * .     ",
"  ' + + 1 # :         L M N O J     @ 1 9 P + + + + + , .       ",
"  1 5 7 ) 4 6           Q R S T U 6 ) 9 V = + + + + * 3         ",
"    # @ 3 :               W X Y Z ) 9 # = [ ( 5 4 6 .           ",
"      $ ] 6                 ^ _ ` 1 % = V 4                     ",
"        5                   a b 1 5 * c '                       ",
"                          3 = # ( * d e ^                       ",
"                        3 0 $ @ * c f g h E                     ",
"                      3 0 # : 0 ) i j k l m n                   ",
"                    ' 0 # o - 9 3   ^ p q r s t                 ",
"                  4 - + u 7 9 3       v w x y z {               ",
"                ) 1 = + , ) 3           | } ~  !!!#!            ",
"                $ % # , ) 3               $!%!&!'!(!J           ",
"                  @ % * '                   )!*!+!J             ",
"                    # &                       ,!J               ",
"                                                                ",
"                                                                ",
"                                                                ",
"                                                                "};
