/* XPM */ 
static char * transfers_xpm[] = {
"32 32 141 2",
"  	c None",
"! 	c black",
"# 	c #075090",
"$ 	c #093D5C",
"% 	c #720202",
"& 	c #7C0405",
"' 	c #880506",
"( 	c #920609",
") 	c #A20A0D",
"* 	c #B50F13",
"+ 	c #75B8F3",
", 	c #135FA1",
"- 	c #750202",
". 	c #92080A",
"0 	c #9B0A0D",
"1 	c #A40D10",
"2 	c #BC1318",
"3 	c #D31820",
"4 	c #E21D26",
"5 	c #CB161C",
"6 	c #79AFE9",
"7 	c #AFD9FD",
"8 	c #73C1FD",
"9 	c #6D0000",
": 	c #8A0609",
"; 	c #EA212A",
"< 	c #D4EAFD",
"= 	c #C5E3FB",
"> 	c #77C0F6",
"? 	c #57B4F9",
"@ 	c #F2232D",
"A 	c #F3FAFF",
"B 	c #6FBEF9",
"C 	c #369CE6",
"D 	c #3191D9",
"E 	c #F44B53",
"F 	c #F57076",
"G 	c #F7878C",
"H 	c #D53F3A",
"I 	c #8DC7FA",
"J 	c #65B9F8",
"K 	c #248AD6",
"L 	c #42640F",
"M 	c #3C5B0D",
"N 	c #990405",
"O 	c #F5585F",
"P 	c #F8A3A6",
"Q 	c #F56D61",
"R 	c #6BAAEC",
"S 	c #B5DAF9",
"T 	c #5BB6F8",
"U 	c #1479C6",
"V 	c #4C7411",
"W 	c #72AD19",
"X 	c #FBD4D5",
"Y 	c #45690F",
"Z 	c #2D440A",
"[ 	c #317ABD",
"] 	c #99CEF9",
"^ 	c #44A9F3",
"_ 	c #5F9115",
"` 	c #6BA318",
"a 	c #70AA19",
"b 	c #770303",
"c 	c #568313",
"d 	c #3B95D4",
"e 	c #2B9BEA",
"f 	c #1370B8",
"g 	c #5C8C14",
"h 	c #679C17",
"i 	c #689E17",
"j 	c #6BA217",
"k 	c #F5656C",
"l 	c white",
"m 	c #0B5FA0",
"n 	c #126AAE",
"o 	c #12619E",
"p 	c #0E568D",
"q 	c #C62D31",
"r 	c #CD3035",
"s 	c #F66B71",
"t 	c #F88D91",
"u 	c #36520C",
"v 	c #094E84",
"w 	c #0C4C79",
"x 	c #0B4771",
"y 	c #0B446B",
"z 	c #598714",
"{ 	c #629516",
"| 	c #F89296",
"} 	c #FDE9EA",
"~ 	c #FBCED0",
" !	c #40620E",
"!!	c #486D10",
"#!	c #99E12C",
"$!	c #AEE759",
"%!	c #B0E85B",
"&!	c #9FE33A",
"'!	c #9BE231",
"(!	c #8CD41F",
")!	c #D3F2A4",
"*!	c #E6F8CB",
"+!	c #F5FCEA",
",!	c #F8FDF1",
"-!	c #F1FBE3",
".!	c #D6F3AB",
"0!	c #CCF095",
"1!	c #BBEB73",
"2!	c #95E025",
"3!	c #78B61A",
"4!	c #7FC11C",
"5!	c #E9F9D2",
"6!	c #EDFAD9",
"7!	c #DAF4B4",
"8!	c #C8EF8E",
"9!	c #88CF1E",
":!	c #527C12",
";!	c #D8F4AF",
"<!	c #DFF6BD",
"=!	c #E3F7C6",
">!	c #C5EE87",
"?!	c #CFF19D",
"@!	c #BEEC7A",
"A!	c #76B41A",
"B!	c #A2E43F",
"C!	c #ACE754",
"D!	c #B8EA6C",
"E!	c #C6EE8A",
"F!	c #476B10",
"G!	c #8FD91F",
"H!	c #A3E441",
"I!	c #A7E54B",
"J!	c #B5E967",
"K!	c #B6EA69",
"L!	c #98E12A",
"M!	c #7CBD1B",
"N!	c #85CB1D",
"O!	c #344F0C",
"P!	c #314A0B",
"Q!	c #4A7010",
"R!	c #81C41C",
"              # $             % & ' ( ( ) ) * * %               ",
"            # + , $         % - . 0 1 2 3 3 4 5 * * %           ",
"          # 6 7 8 , $     % 9 9 9 9 & : 1 4 4 4 ; 5 * %         ",
"        # 6 < = > ? , $               & ( * 4 @ @ @ * %         ",
"      # 6 A A < B C D , $             9 ' 0 @ E F G H *         ",
"    # # # # I < J K $ $ $ $ L M M M M 9 ' N @ O G P Q *         ",
"          # R S T U $ V W W W W W W W 9 ' ) @ O G X Q * Y Z Z   ",
"          # [ ] ^ U $ _ ` a a a a a a 9 b ) @ O G X Q * c _ V Z ",
"          L # d e f $ g h i j j j 9 9 9 b ) @ k G l Q * c j g Z ",
"          M # m n o p $ $ $ $ g h 9 ' q r r @ s t l Q * * * * u ",
"          M _ # v w x y $ $ z { { { 9 ' @ O k s | } l l Q * V Z ",
"          M V V V V V V c { _ _ _ _ _ 9 ' @ k G | ~ } Q * V _ Z ",
"  Z Z Z Z Z Z Z Z Z Z M  !L V V V V V V 9 ' @ | | X Q * !!g g Z ",
"M { #!$!%!%!&!'!(!{ L Z Z Z Z Z Z Z Z M V 9 ' @ P Q * Y c c c Z ",
"M #!)!*!+!,!,!,!-!*!.!0!1!$!&!&!2!3!L Z Y V 9 ' Q * L c c c c Z ",
"M 4!.!*!*!*!*!5!5!6!+!,!,!,!-!*!7!8!9!Z u L V 9 ' L V :!:!:!:!Z ",
"  M %!)!)!)!)!.!;!<!=!=!=!=!=!=!=!7!>!h Z u  !Y L Y Y !!V V V Z ",
"  M 3!8!8!8!8!8!8!8!8!8!8!8!8!8!8!8!?!@!A!Z Z Z Z Z L Y !!V V Z ",
"    M B!1!1!1!1!1!1!1!1!1!1!1!1!1!1!8!?!>!1!1!C!2!_ Z L Y V V Z ",
"    M ` %!%!%!%!%!%!%!%!%!%!%!%!%!%!D!8!?!*!6!6!;!E!{ Z L F!V Z ",
"      M G!H!B!B!B!H!H!H!H!H!H!H!H!H!I!C!J!J!J!J!J!K!2!Z L Y !!Z ",
"      M { #!L!L!L!L!L!L!L!#!#!#!#!#!#!#!#!#!#!#!#!#!#!Z M L Y Z ",
"        u M!2!G!G!G!G!G!G!G!G!G!G!G!G!G!G!G!G!G!G!G!2!_ Z L L Z ",
"        u g (!(!(!(!(!(!(!(!(!(!(!(!(!(!(!(!(!(!(!(!(!4!Z L L Z ",
"          u A!(!9!9!9!9!9!9!N!9!N!N!N!N!N!N!N!N!N!N!N!(!Z u L Z ",
"          u c N!(!9!9!9!9!9!N!N!N!N!N!N!N!N!N!N!N!N!N!9!V Z L Z ",
"            u W 9!(!(!(!(!(!(!(!(!(!(!(!(!(!(!(!(!(!(!(!M!Z L Z ",
"            u V A!(!(!(!(!(!(!(!(!(!(!(!(!(!(!(!(!(!(!(!(!Z u Z ",
"              u :!j M!N!(!(!(!(!(!(!(!(!(!(!(!(!(!(!(!(!(!c Z Z ",
"                O!O!O!O!O!O!O!V h W M!N!N!9!(!(!(!(!(!(!(!` Z Z ",
"                            P!Q!Q!O!O!O!Z Z Z !!_ W M!R!N!g Z   ",
"                                            P!L Z Z Z Z Z Z     "};
